%TF.GenerationSoftware,KiCad,Pcbnew,(5.1.7)-1*%
%TF.CreationDate,2020-12-20T22:11:26+02:00*%
%TF.ProjectId,SOUNDBOX,534f554e-4442-44f5-982e-6b696361645f,rev?*%
%TF.SameCoordinates,Original*%
%TF.FileFunction,Legend,Bot*%
%TF.FilePolarity,Positive*%
%FSLAX46Y46*%
G04 Gerber Fmt 4.6, Leading zero omitted, Abs format (unit mm)*
G04 Created by KiCad (PCBNEW (5.1.7)-1) date 2020-12-20 22:11:26*
%MOMM*%
%LPD*%
G01*
G04 APERTURE LIST*
%ADD10C,0.150000*%
%ADD11C,0.120000*%
G04 APERTURE END LIST*
D10*
X125538476Y-112974380D02*
X125538476Y-111974380D01*
X125300380Y-111974380D01*
X125157523Y-112022000D01*
X125062285Y-112117238D01*
X125014666Y-112212476D01*
X124967047Y-112402952D01*
X124967047Y-112545809D01*
X125014666Y-112736285D01*
X125062285Y-112831523D01*
X125157523Y-112926761D01*
X125300380Y-112974380D01*
X125538476Y-112974380D01*
X124157523Y-112926761D02*
X124252761Y-112974380D01*
X124443238Y-112974380D01*
X124538476Y-112926761D01*
X124586095Y-112831523D01*
X124586095Y-112450571D01*
X124538476Y-112355333D01*
X124443238Y-112307714D01*
X124252761Y-112307714D01*
X124157523Y-112355333D01*
X124109904Y-112450571D01*
X124109904Y-112545809D01*
X124586095Y-112641047D01*
X123681333Y-112307714D02*
X123681333Y-112974380D01*
X123681333Y-112402952D02*
X123633714Y-112355333D01*
X123538476Y-112307714D01*
X123395619Y-112307714D01*
X123300380Y-112355333D01*
X123252761Y-112450571D01*
X123252761Y-112974380D01*
X122776571Y-112974380D02*
X122776571Y-112307714D01*
X122776571Y-111974380D02*
X122824190Y-112022000D01*
X122776571Y-112069619D01*
X122728952Y-112022000D01*
X122776571Y-111974380D01*
X122776571Y-112069619D01*
X122348000Y-112926761D02*
X122252761Y-112974380D01*
X122062285Y-112974380D01*
X121967047Y-112926761D01*
X121919428Y-112831523D01*
X121919428Y-112783904D01*
X121967047Y-112688666D01*
X122062285Y-112641047D01*
X122205142Y-112641047D01*
X122300380Y-112593428D01*
X122348000Y-112498190D01*
X122348000Y-112450571D01*
X122300380Y-112355333D01*
X122205142Y-112307714D01*
X122062285Y-112307714D01*
X121967047Y-112355333D01*
X121538476Y-112926761D02*
X121443238Y-112974380D01*
X121252761Y-112974380D01*
X121157523Y-112926761D01*
X121109904Y-112831523D01*
X121109904Y-112783904D01*
X121157523Y-112688666D01*
X121252761Y-112641047D01*
X121395619Y-112641047D01*
X121490857Y-112593428D01*
X121538476Y-112498190D01*
X121538476Y-112450571D01*
X121490857Y-112355333D01*
X121395619Y-112307714D01*
X121252761Y-112307714D01*
X121157523Y-112355333D01*
X119586095Y-112450571D02*
X119443238Y-112498190D01*
X119395619Y-112545809D01*
X119348000Y-112641047D01*
X119348000Y-112783904D01*
X119395619Y-112879142D01*
X119443238Y-112926761D01*
X119538476Y-112974380D01*
X119919428Y-112974380D01*
X119919428Y-111974380D01*
X119586095Y-111974380D01*
X119490857Y-112022000D01*
X119443238Y-112069619D01*
X119395619Y-112164857D01*
X119395619Y-112260095D01*
X119443238Y-112355333D01*
X119490857Y-112402952D01*
X119586095Y-112450571D01*
X119919428Y-112450571D01*
X118538476Y-112926761D02*
X118633714Y-112974380D01*
X118824190Y-112974380D01*
X118919428Y-112926761D01*
X118967047Y-112831523D01*
X118967047Y-112450571D01*
X118919428Y-112355333D01*
X118824190Y-112307714D01*
X118633714Y-112307714D01*
X118538476Y-112355333D01*
X118490857Y-112450571D01*
X118490857Y-112545809D01*
X118967047Y-112641047D01*
X117919428Y-112974380D02*
X118014666Y-112926761D01*
X118062285Y-112831523D01*
X118062285Y-111974380D01*
X117538476Y-112974380D02*
X117538476Y-112307714D01*
X117538476Y-111974380D02*
X117586095Y-112022000D01*
X117538476Y-112069619D01*
X117490857Y-112022000D01*
X117538476Y-111974380D01*
X117538476Y-112069619D01*
X117062285Y-112307714D02*
X117062285Y-112974380D01*
X117062285Y-112402952D02*
X117014666Y-112355333D01*
X116919428Y-112307714D01*
X116776571Y-112307714D01*
X116681333Y-112355333D01*
X116633714Y-112450571D01*
X116633714Y-112974380D01*
X116205142Y-112926761D02*
X116109904Y-112974380D01*
X115919428Y-112974380D01*
X115824190Y-112926761D01*
X115776571Y-112831523D01*
X115776571Y-112783904D01*
X115824190Y-112688666D01*
X115919428Y-112641047D01*
X116062285Y-112641047D01*
X116157523Y-112593428D01*
X116205142Y-112498190D01*
X116205142Y-112450571D01*
X116157523Y-112355333D01*
X116062285Y-112307714D01*
X115919428Y-112307714D01*
X115824190Y-112355333D01*
X115348000Y-112974380D02*
X115348000Y-111974380D01*
X115252761Y-112593428D02*
X114967047Y-112974380D01*
X114967047Y-112307714D02*
X115348000Y-112688666D01*
X114538476Y-112974380D02*
X114538476Y-112307714D01*
X114538476Y-111974380D02*
X114586095Y-112022000D01*
X114538476Y-112069619D01*
X114490857Y-112022000D01*
X114538476Y-111974380D01*
X114538476Y-112069619D01*
X114109904Y-112926761D02*
X114014666Y-112974380D01*
X113824190Y-112974380D01*
X113728952Y-112926761D01*
X113681333Y-112831523D01*
X113681333Y-112783904D01*
X113728952Y-112688666D01*
X113824190Y-112641047D01*
X113967047Y-112641047D01*
X114062285Y-112593428D01*
X114109904Y-112498190D01*
X114109904Y-112450571D01*
X114062285Y-112355333D01*
X113967047Y-112307714D01*
X113824190Y-112307714D01*
X113728952Y-112355333D01*
X112538476Y-112069619D02*
X112490857Y-112022000D01*
X112395619Y-111974380D01*
X112157523Y-111974380D01*
X112062285Y-112022000D01*
X112014666Y-112069619D01*
X111967047Y-112164857D01*
X111967047Y-112260095D01*
X112014666Y-112402952D01*
X112586095Y-112974380D01*
X111967047Y-112974380D01*
X111538476Y-112879142D02*
X111490857Y-112926761D01*
X111538476Y-112974380D01*
X111586095Y-112926761D01*
X111538476Y-112879142D01*
X111538476Y-112974380D01*
X111062285Y-112450571D02*
X110728952Y-112450571D01*
X110586095Y-112974380D02*
X111062285Y-112974380D01*
X111062285Y-111974380D01*
X110586095Y-111974380D01*
X110157523Y-112974380D02*
X110157523Y-111974380D01*
X109681333Y-112974380D02*
X109681333Y-111974380D01*
X109300380Y-111974380D01*
X109205142Y-112022000D01*
X109157523Y-112069619D01*
X109109904Y-112164857D01*
X109109904Y-112307714D01*
X109157523Y-112402952D01*
X109205142Y-112450571D01*
X109300380Y-112498190D01*
X109681333Y-112498190D01*
D11*
%TO.C,R1*%
X113834936Y-146585000D02*
X114289064Y-146585000D01*
X113834936Y-148055000D02*
X114289064Y-148055000D01*
%TO.C,R28*%
X113273064Y-133377000D02*
X112818936Y-133377000D01*
X113273064Y-134847000D02*
X112818936Y-134847000D01*
%TO.C,C32*%
X104154248Y-149071000D02*
X104676752Y-149071000D01*
X104154248Y-147601000D02*
X104676752Y-147601000D01*
%TO.C,C3*%
X94459248Y-136679000D02*
X94981752Y-136679000D01*
X94459248Y-138149000D02*
X94981752Y-138149000D01*
%TO.C,U2*%
X96774000Y-128340000D02*
X93174000Y-128340000D01*
X96774000Y-128340000D02*
X98974000Y-128340000D01*
X96774000Y-123120000D02*
X94574000Y-123120000D01*
X96774000Y-123120000D02*
X98974000Y-123120000D01*
%TO.C,C33*%
X70583248Y-150395000D02*
X71105752Y-150395000D01*
X70583248Y-151865000D02*
X71105752Y-151865000D01*
%TO.C,U3*%
X69850000Y-126054000D02*
X66250000Y-126054000D01*
X69850000Y-126054000D02*
X72050000Y-126054000D01*
X69850000Y-120834000D02*
X67650000Y-120834000D01*
X69850000Y-120834000D02*
X72050000Y-120834000D01*
%TO.C,C30*%
X85372000Y-119850000D02*
X85372000Y-118850000D01*
X84872000Y-119350000D02*
X85872000Y-119350000D01*
X86112000Y-113644437D02*
X87176437Y-112580000D01*
X86112000Y-120035563D02*
X87176437Y-121100000D01*
X86112000Y-120035563D02*
X86112000Y-118350000D01*
X86112000Y-113644437D02*
X86112000Y-115330000D01*
X87176437Y-112580000D02*
X94632000Y-112580000D01*
X87176437Y-121100000D02*
X94632000Y-121100000D01*
X94632000Y-121100000D02*
X94632000Y-118350000D01*
X94632000Y-112580000D02*
X94632000Y-115330000D01*
%TO.C,U4*%
X119380000Y-123374000D02*
X121580000Y-123374000D01*
X119380000Y-123374000D02*
X117180000Y-123374000D01*
X119380000Y-128594000D02*
X121580000Y-128594000D01*
X119380000Y-128594000D02*
X115780000Y-128594000D01*
%TO.C,R18*%
X85555064Y-134085000D02*
X85100936Y-134085000D01*
X85555064Y-132615000D02*
X85100936Y-132615000D01*
%TO.C,C1*%
X71105752Y-140235000D02*
X70583248Y-140235000D01*
X71105752Y-141705000D02*
X70583248Y-141705000D01*
%TO.C,C2*%
X117594748Y-130075000D02*
X118117252Y-130075000D01*
X117594748Y-131545000D02*
X118117252Y-131545000D01*
%TO.C,C4*%
X63725248Y-129005000D02*
X64247752Y-129005000D01*
X63725248Y-127535000D02*
X64247752Y-127535000D01*
%TO.C,C5*%
X126252248Y-127027000D02*
X126774752Y-127027000D01*
X126252248Y-128497000D02*
X126774752Y-128497000D01*
%TO.C,C6*%
X104676752Y-132307000D02*
X104154248Y-132307000D01*
X104676752Y-130837000D02*
X104154248Y-130837000D01*
%TO.C,C7*%
X85583752Y-129567000D02*
X85061248Y-129567000D01*
X85583752Y-131037000D02*
X85061248Y-131037000D01*
%TO.C,C8*%
X117616248Y-134847000D02*
X118138752Y-134847000D01*
X117616248Y-133377000D02*
X118138752Y-133377000D01*
%TO.C,C9*%
X94502248Y-130075000D02*
X95024752Y-130075000D01*
X94502248Y-131545000D02*
X95024752Y-131545000D01*
%TO.C,C10*%
X68587252Y-135355000D02*
X68064748Y-135355000D01*
X68587252Y-133885000D02*
X68064748Y-133885000D01*
%TO.C,C11*%
X122188248Y-135101000D02*
X122710752Y-135101000D01*
X122188248Y-133631000D02*
X122710752Y-133631000D01*
%TO.C,C12*%
X99539248Y-131545000D02*
X100061752Y-131545000D01*
X99539248Y-130075000D02*
X100061752Y-130075000D01*
%TO.C,C13*%
X80743248Y-129567000D02*
X81265752Y-129567000D01*
X80743248Y-131037000D02*
X81265752Y-131037000D01*
%TO.C,C14*%
X121891248Y-118591000D02*
X122413752Y-118591000D01*
X121891248Y-117121000D02*
X122413752Y-117121000D01*
%TO.C,C15*%
X113545252Y-120423000D02*
X113022748Y-120423000D01*
X113545252Y-121893000D02*
X113022748Y-121893000D01*
%TO.C,C16*%
X108450748Y-127281000D02*
X108973252Y-127281000D01*
X108450748Y-128751000D02*
X108973252Y-128751000D01*
%TO.C,C17*%
X90198752Y-122963000D02*
X89676248Y-122963000D01*
X90198752Y-124433000D02*
X89676248Y-124433000D01*
%TO.C,C18*%
X85605252Y-124433000D02*
X85082748Y-124433000D01*
X85605252Y-122963000D02*
X85082748Y-122963000D01*
%TO.C,C19*%
X59209000Y-113784748D02*
X59209000Y-114307252D01*
X60679000Y-113784748D02*
X60679000Y-114307252D01*
%TO.C,C20*%
X121934248Y-120423000D02*
X122456752Y-120423000D01*
X121934248Y-121893000D02*
X122456752Y-121893000D01*
%TO.C,C21*%
X104154248Y-125449000D02*
X104676752Y-125449000D01*
X104154248Y-123979000D02*
X104676752Y-123979000D01*
%TO.C,C22*%
X76192748Y-125703000D02*
X76715252Y-125703000D01*
X76192748Y-124233000D02*
X76715252Y-124233000D01*
%TO.C,C23*%
X113291252Y-127989000D02*
X112768748Y-127989000D01*
X113291252Y-126519000D02*
X112768748Y-126519000D01*
%TO.C,C24*%
X90198752Y-131037000D02*
X89676248Y-131037000D01*
X90198752Y-129567000D02*
X89676248Y-129567000D01*
%TO.C,C25*%
X63993752Y-122401000D02*
X63471248Y-122401000D01*
X63993752Y-120931000D02*
X63471248Y-120931000D01*
%TO.C,C26*%
X71105752Y-145007000D02*
X70583248Y-145007000D01*
X71105752Y-143537000D02*
X70583248Y-143537000D01*
%TO.C,C27*%
X108740752Y-149071000D02*
X108218248Y-149071000D01*
X108740752Y-147601000D02*
X108218248Y-147601000D01*
%TO.C,C29*%
X70583248Y-148563000D02*
X71105752Y-148563000D01*
X70583248Y-147093000D02*
X71105752Y-147093000D01*
%TO.C,C31*%
X94459248Y-141705000D02*
X94981752Y-141705000D01*
X94459248Y-140235000D02*
X94981752Y-140235000D01*
%TO.C,C34*%
X71105752Y-155929000D02*
X70583248Y-155929000D01*
X71105752Y-154459000D02*
X70583248Y-154459000D01*
%TO.C,C35*%
X112790248Y-154405000D02*
X113312752Y-154405000D01*
X112790248Y-152935000D02*
X113312752Y-152935000D01*
%TO.C,C37*%
X54075000Y-113806248D02*
X54075000Y-114328752D01*
X52605000Y-113806248D02*
X52605000Y-114328752D01*
%TO.C,C41*%
X75198248Y-140689000D02*
X75720752Y-140689000D01*
X75198248Y-139219000D02*
X75720752Y-139219000D01*
%TO.C,C42*%
X57230000Y-144234000D02*
X57230000Y-143234000D01*
X56730000Y-143734000D02*
X57730000Y-143734000D01*
X57970000Y-138028437D02*
X59034437Y-136964000D01*
X57970000Y-144419563D02*
X59034437Y-145484000D01*
X57970000Y-144419563D02*
X57970000Y-142734000D01*
X57970000Y-138028437D02*
X57970000Y-139714000D01*
X59034437Y-136964000D02*
X66490000Y-136964000D01*
X59034437Y-145484000D02*
X66490000Y-145484000D01*
X66490000Y-145484000D02*
X66490000Y-142734000D01*
X66490000Y-136964000D02*
X66490000Y-139714000D01*
%TO.C,C44*%
X113784748Y-149887000D02*
X114307252Y-149887000D01*
X113784748Y-151357000D02*
X114307252Y-151357000D01*
%TO.C,J1*%
X80832000Y-111312000D02*
X80832000Y-109982000D01*
X79502000Y-111312000D02*
X80832000Y-111312000D01*
X78232000Y-111312000D02*
X78232000Y-108652000D01*
X78232000Y-108652000D02*
X65472000Y-108652000D01*
X78232000Y-111312000D02*
X65472000Y-111312000D01*
X65472000Y-111312000D02*
X65472000Y-108652000D01*
%TO.C,J2*%
X83252000Y-108652000D02*
X83252000Y-109982000D01*
X84582000Y-108652000D02*
X83252000Y-108652000D01*
X85852000Y-108652000D02*
X85852000Y-111312000D01*
X85852000Y-111312000D02*
X103692000Y-111312000D01*
X85852000Y-108652000D02*
X103692000Y-108652000D01*
X103692000Y-108652000D02*
X103692000Y-111312000D01*
%TO.C,J3*%
X105216000Y-159572000D02*
X105216000Y-158242000D01*
X103886000Y-159572000D02*
X105216000Y-159572000D01*
X102616000Y-159572000D02*
X102616000Y-156912000D01*
X102616000Y-156912000D02*
X87316000Y-156912000D01*
X102616000Y-159572000D02*
X87316000Y-159572000D01*
X87316000Y-159572000D02*
X87316000Y-156912000D01*
%TO.C,J4*%
X70552000Y-159572000D02*
X70552000Y-156912000D01*
X83312000Y-159572000D02*
X70552000Y-159572000D01*
X83312000Y-156912000D02*
X70552000Y-156912000D01*
X83312000Y-159572000D02*
X83312000Y-156912000D01*
X84582000Y-159572000D02*
X85912000Y-159572000D01*
X85912000Y-159572000D02*
X85912000Y-158242000D01*
%TO.C,R2*%
X113273064Y-144753000D02*
X112818936Y-144753000D01*
X113273064Y-143283000D02*
X112818936Y-143283000D01*
%TO.C,R3*%
X99578936Y-140235000D02*
X100033064Y-140235000D01*
X99578936Y-141705000D02*
X100033064Y-141705000D01*
%TO.C,R4*%
X85132936Y-140689000D02*
X85587064Y-140689000D01*
X85132936Y-139219000D02*
X85587064Y-139219000D01*
%TO.C,R5*%
X108500936Y-142467000D02*
X108955064Y-142467000D01*
X108500936Y-140997000D02*
X108955064Y-140997000D01*
%TO.C,R6*%
X104420936Y-142467000D02*
X104875064Y-142467000D01*
X104420936Y-140997000D02*
X104875064Y-140997000D01*
%TO.C,R7*%
X63997064Y-132307000D02*
X63542936Y-132307000D01*
X63997064Y-130837000D02*
X63542936Y-130837000D01*
%TO.C,R8*%
X71093064Y-136933000D02*
X70638936Y-136933000D01*
X71093064Y-138403000D02*
X70638936Y-138403000D01*
%TO.C,R9*%
X81269064Y-137387000D02*
X80814936Y-137387000D01*
X81269064Y-135917000D02*
X80814936Y-135917000D01*
%TO.C,R10*%
X80782936Y-140689000D02*
X81237064Y-140689000D01*
X80782936Y-139219000D02*
X81237064Y-139219000D01*
%TO.C,R11*%
X63965064Y-135355000D02*
X63510936Y-135355000D01*
X63965064Y-133885000D02*
X63510936Y-133885000D01*
%TO.C,R12*%
X58970936Y-135609000D02*
X59425064Y-135609000D01*
X58970936Y-134139000D02*
X59425064Y-134139000D01*
%TO.C,R13*%
X118067064Y-139981000D02*
X117612936Y-139981000D01*
X118067064Y-141451000D02*
X117612936Y-141451000D01*
%TO.C,R14*%
X94514936Y-133377000D02*
X94969064Y-133377000D01*
X94514936Y-134847000D02*
X94969064Y-134847000D01*
%TO.C,R15*%
X81253064Y-132615000D02*
X80798936Y-132615000D01*
X81253064Y-134085000D02*
X80798936Y-134085000D01*
%TO.C,R16*%
X126703064Y-130075000D02*
X126248936Y-130075000D01*
X126703064Y-131545000D02*
X126248936Y-131545000D01*
%TO.C,R17*%
X99578936Y-133377000D02*
X100033064Y-133377000D01*
X99578936Y-134847000D02*
X100033064Y-134847000D01*
%TO.C,R19*%
X118067064Y-138149000D02*
X117612936Y-138149000D01*
X118067064Y-136679000D02*
X117612936Y-136679000D01*
%TO.C,R20*%
X89704936Y-140689000D02*
X90159064Y-140689000D01*
X89704936Y-139219000D02*
X90159064Y-139219000D01*
%TO.C,R21*%
X68114936Y-127535000D02*
X68569064Y-127535000D01*
X68114936Y-129005000D02*
X68569064Y-129005000D01*
%TO.C,R22*%
X122639064Y-138403000D02*
X122184936Y-138403000D01*
X122639064Y-136933000D02*
X122184936Y-136933000D01*
%TO.C,R23*%
X100049064Y-136679000D02*
X99594936Y-136679000D01*
X100049064Y-138149000D02*
X99594936Y-138149000D01*
%TO.C,R24*%
X85100936Y-137387000D02*
X85555064Y-137387000D01*
X85100936Y-135917000D02*
X85555064Y-135917000D01*
%TO.C,R25*%
X122184936Y-130075000D02*
X122639064Y-130075000D01*
X122184936Y-131545000D02*
X122639064Y-131545000D01*
%TO.C,R26*%
X104150936Y-127281000D02*
X104605064Y-127281000D01*
X104150936Y-128751000D02*
X104605064Y-128751000D01*
%TO.C,R27*%
X81237064Y-127735000D02*
X80782936Y-127735000D01*
X81237064Y-126265000D02*
X80782936Y-126265000D01*
%TO.C,R29*%
X90159064Y-137387000D02*
X89704936Y-137387000D01*
X90159064Y-135917000D02*
X89704936Y-135917000D01*
%TO.C,R30*%
X68082936Y-132307000D02*
X68537064Y-132307000D01*
X68082936Y-130837000D02*
X68537064Y-130837000D01*
%TO.C,R31*%
X126280936Y-123725000D02*
X126735064Y-123725000D01*
X126280936Y-125195000D02*
X126735064Y-125195000D01*
%TO.C,R32*%
X108468936Y-130837000D02*
X108923064Y-130837000D01*
X108468936Y-132307000D02*
X108923064Y-132307000D01*
%TO.C,R33*%
X80782936Y-124433000D02*
X81237064Y-124433000D01*
X80782936Y-122963000D02*
X81237064Y-122963000D01*
%TO.C,R34*%
X113273064Y-131545000D02*
X112818936Y-131545000D01*
X113273064Y-130075000D02*
X112818936Y-130075000D01*
%TO.C,R35*%
X90127064Y-132869000D02*
X89672936Y-132869000D01*
X90127064Y-134339000D02*
X89672936Y-134339000D01*
%TO.C,R36*%
X63526936Y-124233000D02*
X63981064Y-124233000D01*
X63526936Y-125703000D02*
X63981064Y-125703000D01*
%TO.C,R37*%
X126248936Y-121893000D02*
X126703064Y-121893000D01*
X126248936Y-120423000D02*
X126703064Y-120423000D01*
%TO.C,R38*%
X113241064Y-136679000D02*
X112786936Y-136679000D01*
X113241064Y-138149000D02*
X112786936Y-138149000D01*
%TO.C,R39*%
X108955064Y-123979000D02*
X108500936Y-123979000D01*
X108955064Y-125449000D02*
X108500936Y-125449000D01*
%TO.C,R40*%
X104605064Y-145769000D02*
X104150936Y-145769000D01*
X104605064Y-144299000D02*
X104150936Y-144299000D01*
%TO.C,R41*%
X85100936Y-126265000D02*
X85555064Y-126265000D01*
X85100936Y-127735000D02*
X85555064Y-127735000D01*
%TO.C,R42*%
X62511000Y-113834936D02*
X62511000Y-114289064D01*
X63981000Y-113834936D02*
X63981000Y-114289064D01*
%TO.C,R43*%
X117612936Y-121893000D02*
X118067064Y-121893000D01*
X117612936Y-120423000D02*
X118067064Y-120423000D01*
%TO.C,R44*%
X108754936Y-121893000D02*
X109209064Y-121893000D01*
X108754936Y-120423000D02*
X109209064Y-120423000D01*
%TO.C,R45*%
X76189064Y-120931000D02*
X75734936Y-120931000D01*
X76189064Y-122401000D02*
X75734936Y-122401000D01*
%TO.C,R46*%
X112818936Y-123217000D02*
X113273064Y-123217000D01*
X112818936Y-124687000D02*
X113273064Y-124687000D01*
%TO.C,R47*%
X89688936Y-127735000D02*
X90143064Y-127735000D01*
X89688936Y-126265000D02*
X90143064Y-126265000D01*
%TO.C,R48*%
X63542936Y-119099000D02*
X63997064Y-119099000D01*
X63542936Y-117629000D02*
X63997064Y-117629000D01*
%TO.C,R49*%
X55907000Y-114289064D02*
X55907000Y-113834936D01*
X57377000Y-114289064D02*
X57377000Y-113834936D01*
%TO.C,R51*%
X75194936Y-135917000D02*
X75649064Y-135917000D01*
X75194936Y-137387000D02*
X75649064Y-137387000D01*
%TO.C,R53*%
X113527064Y-139981000D02*
X113072936Y-139981000D01*
X113527064Y-141451000D02*
X113072936Y-141451000D01*
%TO.C,R54*%
X108685064Y-145769000D02*
X108230936Y-145769000D01*
X108685064Y-144299000D02*
X108230936Y-144299000D01*
%TO.C,R56*%
X70839000Y-113802936D02*
X70839000Y-114257064D01*
X69369000Y-113802936D02*
X69369000Y-114257064D01*
%TO.C,R57*%
X75973000Y-113802936D02*
X75973000Y-114257064D01*
X77443000Y-113802936D02*
X77443000Y-114257064D01*
%TO.C,R58*%
X82577000Y-113802936D02*
X82577000Y-114257064D01*
X84047000Y-113802936D02*
X84047000Y-114257064D01*
%TO.C,R59*%
X66067000Y-114056936D02*
X66067000Y-114511064D01*
X67537000Y-114056936D02*
X67537000Y-114511064D01*
%TO.C,R60*%
X74141000Y-113802936D02*
X74141000Y-114257064D01*
X72671000Y-113802936D02*
X72671000Y-114257064D01*
%TO.C,R61*%
X80745000Y-113802936D02*
X80745000Y-114257064D01*
X79275000Y-113802936D02*
X79275000Y-114257064D01*
%TO.C,U5*%
X106237000Y-139085000D02*
X104287000Y-139085000D01*
X106237000Y-139085000D02*
X108187000Y-139085000D01*
X106237000Y-133965000D02*
X104287000Y-133965000D01*
X106237000Y-133965000D02*
X109687000Y-133965000D01*
%TO.C,U6*%
X74676000Y-127742000D02*
X78126000Y-127742000D01*
X74676000Y-127742000D02*
X72726000Y-127742000D01*
X74676000Y-132862000D02*
X76626000Y-132862000D01*
X74676000Y-132862000D02*
X72726000Y-132862000D01*
%TO.C,D2*%
X76108000Y-117214000D02*
X77308000Y-117214000D01*
X76108000Y-119064000D02*
X76108000Y-117214000D01*
X77308000Y-119064000D02*
X77308000Y-117214000D01*
%TO.C,D3*%
X70704000Y-119002000D02*
X70704000Y-117152000D01*
X69504000Y-119002000D02*
X69504000Y-117152000D01*
X69504000Y-117152000D02*
X70704000Y-117152000D01*
%TO.C,D4*%
X80610000Y-119126000D02*
X80610000Y-117276000D01*
X79410000Y-119126000D02*
X79410000Y-117276000D01*
X79410000Y-117276000D02*
X80610000Y-117276000D01*
%TO.C,D5*%
X72806000Y-117214000D02*
X74006000Y-117214000D01*
X72806000Y-119064000D02*
X72806000Y-117214000D01*
X74006000Y-119064000D02*
X74006000Y-117214000D01*
%TO.C,D6*%
X66202000Y-117152000D02*
X67402000Y-117152000D01*
X66202000Y-119002000D02*
X66202000Y-117152000D01*
X67402000Y-119002000D02*
X67402000Y-117152000D01*
%TO.C,D1*%
X83912000Y-118810000D02*
X83912000Y-116960000D01*
X82712000Y-118810000D02*
X82712000Y-116960000D01*
X82712000Y-116960000D02*
X83912000Y-116960000D01*
%TO.C,C43*%
X59302000Y-153382000D02*
X59302000Y-151682000D01*
X59302000Y-147862000D02*
X59302000Y-149562000D01*
X63757563Y-147862000D02*
X59302000Y-147862000D01*
X63757563Y-153382000D02*
X59302000Y-153382000D01*
X64822000Y-152317563D02*
X64822000Y-151682000D01*
X64822000Y-148926437D02*
X64822000Y-149562000D01*
X64822000Y-148926437D02*
X63757563Y-147862000D01*
X64822000Y-152317563D02*
X63757563Y-153382000D01*
X65687000Y-148937000D02*
X65062000Y-148937000D01*
X65374500Y-148624500D02*
X65374500Y-149249500D01*
%TO.C,R1*%
D10*
X114212666Y-146248380D02*
X114546000Y-145772190D01*
X114784095Y-146248380D02*
X114784095Y-145248380D01*
X114403142Y-145248380D01*
X114307904Y-145296000D01*
X114260285Y-145343619D01*
X114212666Y-145438857D01*
X114212666Y-145581714D01*
X114260285Y-145676952D01*
X114307904Y-145724571D01*
X114403142Y-145772190D01*
X114784095Y-145772190D01*
X113260285Y-146248380D02*
X113831714Y-146248380D01*
X113546000Y-146248380D02*
X113546000Y-145248380D01*
X113641238Y-145391238D01*
X113736476Y-145486476D01*
X113831714Y-145534095D01*
%TO.C,R28*%
X113688857Y-132914380D02*
X114022190Y-132438190D01*
X114260285Y-132914380D02*
X114260285Y-131914380D01*
X113879333Y-131914380D01*
X113784095Y-131962000D01*
X113736476Y-132009619D01*
X113688857Y-132104857D01*
X113688857Y-132247714D01*
X113736476Y-132342952D01*
X113784095Y-132390571D01*
X113879333Y-132438190D01*
X114260285Y-132438190D01*
X113307904Y-132009619D02*
X113260285Y-131962000D01*
X113165047Y-131914380D01*
X112926952Y-131914380D01*
X112831714Y-131962000D01*
X112784095Y-132009619D01*
X112736476Y-132104857D01*
X112736476Y-132200095D01*
X112784095Y-132342952D01*
X113355523Y-132914380D01*
X112736476Y-132914380D01*
X112165047Y-132342952D02*
X112260285Y-132295333D01*
X112307904Y-132247714D01*
X112355523Y-132152476D01*
X112355523Y-132104857D01*
X112307904Y-132009619D01*
X112260285Y-131962000D01*
X112165047Y-131914380D01*
X111974571Y-131914380D01*
X111879333Y-131962000D01*
X111831714Y-132009619D01*
X111784095Y-132104857D01*
X111784095Y-132152476D01*
X111831714Y-132247714D01*
X111879333Y-132295333D01*
X111974571Y-132342952D01*
X112165047Y-132342952D01*
X112260285Y-132390571D01*
X112307904Y-132438190D01*
X112355523Y-132533428D01*
X112355523Y-132723904D01*
X112307904Y-132819142D01*
X112260285Y-132866761D01*
X112165047Y-132914380D01*
X111974571Y-132914380D01*
X111879333Y-132866761D01*
X111831714Y-132819142D01*
X111784095Y-132723904D01*
X111784095Y-132533428D01*
X111831714Y-132438190D01*
X111879333Y-132390571D01*
X111974571Y-132342952D01*
%TO.C,C32*%
X105036857Y-147169142D02*
X105084476Y-147216761D01*
X105227333Y-147264380D01*
X105322571Y-147264380D01*
X105465428Y-147216761D01*
X105560666Y-147121523D01*
X105608285Y-147026285D01*
X105655904Y-146835809D01*
X105655904Y-146692952D01*
X105608285Y-146502476D01*
X105560666Y-146407238D01*
X105465428Y-146312000D01*
X105322571Y-146264380D01*
X105227333Y-146264380D01*
X105084476Y-146312000D01*
X105036857Y-146359619D01*
X104703523Y-146264380D02*
X104084476Y-146264380D01*
X104417809Y-146645333D01*
X104274952Y-146645333D01*
X104179714Y-146692952D01*
X104132095Y-146740571D01*
X104084476Y-146835809D01*
X104084476Y-147073904D01*
X104132095Y-147169142D01*
X104179714Y-147216761D01*
X104274952Y-147264380D01*
X104560666Y-147264380D01*
X104655904Y-147216761D01*
X104703523Y-147169142D01*
X103703523Y-146359619D02*
X103655904Y-146312000D01*
X103560666Y-146264380D01*
X103322571Y-146264380D01*
X103227333Y-146312000D01*
X103179714Y-146359619D01*
X103132095Y-146454857D01*
X103132095Y-146550095D01*
X103179714Y-146692952D01*
X103751142Y-147264380D01*
X103132095Y-147264380D01*
%TO.C,C3*%
X94908666Y-136247142D02*
X94956285Y-136294761D01*
X95099142Y-136342380D01*
X95194380Y-136342380D01*
X95337238Y-136294761D01*
X95432476Y-136199523D01*
X95480095Y-136104285D01*
X95527714Y-135913809D01*
X95527714Y-135770952D01*
X95480095Y-135580476D01*
X95432476Y-135485238D01*
X95337238Y-135390000D01*
X95194380Y-135342380D01*
X95099142Y-135342380D01*
X94956285Y-135390000D01*
X94908666Y-135437619D01*
X94575333Y-135342380D02*
X93956285Y-135342380D01*
X94289619Y-135723333D01*
X94146761Y-135723333D01*
X94051523Y-135770952D01*
X94003904Y-135818571D01*
X93956285Y-135913809D01*
X93956285Y-136151904D01*
X94003904Y-136247142D01*
X94051523Y-136294761D01*
X94146761Y-136342380D01*
X94432476Y-136342380D01*
X94527714Y-136294761D01*
X94575333Y-136247142D01*
%TO.C,U2*%
X97535904Y-125182380D02*
X97535904Y-125991904D01*
X97488285Y-126087142D01*
X97440666Y-126134761D01*
X97345428Y-126182380D01*
X97154952Y-126182380D01*
X97059714Y-126134761D01*
X97012095Y-126087142D01*
X96964476Y-125991904D01*
X96964476Y-125182380D01*
X96535904Y-125277619D02*
X96488285Y-125230000D01*
X96393047Y-125182380D01*
X96154952Y-125182380D01*
X96059714Y-125230000D01*
X96012095Y-125277619D01*
X95964476Y-125372857D01*
X95964476Y-125468095D01*
X96012095Y-125610952D01*
X96583523Y-126182380D01*
X95964476Y-126182380D01*
%TO.C,C33*%
X71508857Y-149963142D02*
X71556476Y-150010761D01*
X71699333Y-150058380D01*
X71794571Y-150058380D01*
X71937428Y-150010761D01*
X72032666Y-149915523D01*
X72080285Y-149820285D01*
X72127904Y-149629809D01*
X72127904Y-149486952D01*
X72080285Y-149296476D01*
X72032666Y-149201238D01*
X71937428Y-149106000D01*
X71794571Y-149058380D01*
X71699333Y-149058380D01*
X71556476Y-149106000D01*
X71508857Y-149153619D01*
X71175523Y-149058380D02*
X70556476Y-149058380D01*
X70889809Y-149439333D01*
X70746952Y-149439333D01*
X70651714Y-149486952D01*
X70604095Y-149534571D01*
X70556476Y-149629809D01*
X70556476Y-149867904D01*
X70604095Y-149963142D01*
X70651714Y-150010761D01*
X70746952Y-150058380D01*
X71032666Y-150058380D01*
X71127904Y-150010761D01*
X71175523Y-149963142D01*
X70223142Y-149058380D02*
X69604095Y-149058380D01*
X69937428Y-149439333D01*
X69794571Y-149439333D01*
X69699333Y-149486952D01*
X69651714Y-149534571D01*
X69604095Y-149629809D01*
X69604095Y-149867904D01*
X69651714Y-149963142D01*
X69699333Y-150010761D01*
X69794571Y-150058380D01*
X70080285Y-150058380D01*
X70175523Y-150010761D01*
X70223142Y-149963142D01*
%TO.C,U3*%
X70611904Y-122896380D02*
X70611904Y-123705904D01*
X70564285Y-123801142D01*
X70516666Y-123848761D01*
X70421428Y-123896380D01*
X70230952Y-123896380D01*
X70135714Y-123848761D01*
X70088095Y-123801142D01*
X70040476Y-123705904D01*
X70040476Y-122896380D01*
X69659523Y-122896380D02*
X69040476Y-122896380D01*
X69373809Y-123277333D01*
X69230952Y-123277333D01*
X69135714Y-123324952D01*
X69088095Y-123372571D01*
X69040476Y-123467809D01*
X69040476Y-123705904D01*
X69088095Y-123801142D01*
X69135714Y-123848761D01*
X69230952Y-123896380D01*
X69516666Y-123896380D01*
X69611904Y-123848761D01*
X69659523Y-123801142D01*
%TO.C,C30*%
X91014857Y-117197142D02*
X91062476Y-117244761D01*
X91205333Y-117292380D01*
X91300571Y-117292380D01*
X91443428Y-117244761D01*
X91538666Y-117149523D01*
X91586285Y-117054285D01*
X91633904Y-116863809D01*
X91633904Y-116720952D01*
X91586285Y-116530476D01*
X91538666Y-116435238D01*
X91443428Y-116340000D01*
X91300571Y-116292380D01*
X91205333Y-116292380D01*
X91062476Y-116340000D01*
X91014857Y-116387619D01*
X90681523Y-116292380D02*
X90062476Y-116292380D01*
X90395809Y-116673333D01*
X90252952Y-116673333D01*
X90157714Y-116720952D01*
X90110095Y-116768571D01*
X90062476Y-116863809D01*
X90062476Y-117101904D01*
X90110095Y-117197142D01*
X90157714Y-117244761D01*
X90252952Y-117292380D01*
X90538666Y-117292380D01*
X90633904Y-117244761D01*
X90681523Y-117197142D01*
X89443428Y-116292380D02*
X89348190Y-116292380D01*
X89252952Y-116340000D01*
X89205333Y-116387619D01*
X89157714Y-116482857D01*
X89110095Y-116673333D01*
X89110095Y-116911428D01*
X89157714Y-117101904D01*
X89205333Y-117197142D01*
X89252952Y-117244761D01*
X89348190Y-117292380D01*
X89443428Y-117292380D01*
X89538666Y-117244761D01*
X89586285Y-117197142D01*
X89633904Y-117101904D01*
X89681523Y-116911428D01*
X89681523Y-116673333D01*
X89633904Y-116482857D01*
X89586285Y-116387619D01*
X89538666Y-116340000D01*
X89443428Y-116292380D01*
%TO.C,U4*%
X120141904Y-125436380D02*
X120141904Y-126245904D01*
X120094285Y-126341142D01*
X120046666Y-126388761D01*
X119951428Y-126436380D01*
X119760952Y-126436380D01*
X119665714Y-126388761D01*
X119618095Y-126341142D01*
X119570476Y-126245904D01*
X119570476Y-125436380D01*
X118665714Y-125769714D02*
X118665714Y-126436380D01*
X118903809Y-125388761D02*
X119141904Y-126103047D01*
X118522857Y-126103047D01*
%TO.C,R18*%
X85970857Y-132278380D02*
X86304190Y-131802190D01*
X86542285Y-132278380D02*
X86542285Y-131278380D01*
X86161333Y-131278380D01*
X86066095Y-131326000D01*
X86018476Y-131373619D01*
X85970857Y-131468857D01*
X85970857Y-131611714D01*
X86018476Y-131706952D01*
X86066095Y-131754571D01*
X86161333Y-131802190D01*
X86542285Y-131802190D01*
X85018476Y-132278380D02*
X85589904Y-132278380D01*
X85304190Y-132278380D02*
X85304190Y-131278380D01*
X85399428Y-131421238D01*
X85494666Y-131516476D01*
X85589904Y-131564095D01*
X84447047Y-131706952D02*
X84542285Y-131659333D01*
X84589904Y-131611714D01*
X84637523Y-131516476D01*
X84637523Y-131468857D01*
X84589904Y-131373619D01*
X84542285Y-131326000D01*
X84447047Y-131278380D01*
X84256571Y-131278380D01*
X84161333Y-131326000D01*
X84113714Y-131373619D01*
X84066095Y-131468857D01*
X84066095Y-131516476D01*
X84113714Y-131611714D01*
X84161333Y-131659333D01*
X84256571Y-131706952D01*
X84447047Y-131706952D01*
X84542285Y-131754571D01*
X84589904Y-131802190D01*
X84637523Y-131897428D01*
X84637523Y-132087904D01*
X84589904Y-132183142D01*
X84542285Y-132230761D01*
X84447047Y-132278380D01*
X84256571Y-132278380D01*
X84161333Y-132230761D01*
X84113714Y-132183142D01*
X84066095Y-132087904D01*
X84066095Y-131897428D01*
X84113714Y-131802190D01*
X84161333Y-131754571D01*
X84256571Y-131706952D01*
%TO.C,C1*%
X71011166Y-139647142D02*
X71058785Y-139694761D01*
X71201642Y-139742380D01*
X71296880Y-139742380D01*
X71439738Y-139694761D01*
X71534976Y-139599523D01*
X71582595Y-139504285D01*
X71630214Y-139313809D01*
X71630214Y-139170952D01*
X71582595Y-138980476D01*
X71534976Y-138885238D01*
X71439738Y-138790000D01*
X71296880Y-138742380D01*
X71201642Y-138742380D01*
X71058785Y-138790000D01*
X71011166Y-138837619D01*
X70058785Y-139742380D02*
X70630214Y-139742380D01*
X70344500Y-139742380D02*
X70344500Y-138742380D01*
X70439738Y-138885238D01*
X70534976Y-138980476D01*
X70630214Y-139028095D01*
%TO.C,C2*%
X118022666Y-129643142D02*
X118070285Y-129690761D01*
X118213142Y-129738380D01*
X118308380Y-129738380D01*
X118451238Y-129690761D01*
X118546476Y-129595523D01*
X118594095Y-129500285D01*
X118641714Y-129309809D01*
X118641714Y-129166952D01*
X118594095Y-128976476D01*
X118546476Y-128881238D01*
X118451238Y-128786000D01*
X118308380Y-128738380D01*
X118213142Y-128738380D01*
X118070285Y-128786000D01*
X118022666Y-128833619D01*
X117641714Y-128833619D02*
X117594095Y-128786000D01*
X117498857Y-128738380D01*
X117260761Y-128738380D01*
X117165523Y-128786000D01*
X117117904Y-128833619D01*
X117070285Y-128928857D01*
X117070285Y-129024095D01*
X117117904Y-129166952D01*
X117689333Y-129738380D01*
X117070285Y-129738380D01*
%TO.C,C4*%
X64174666Y-126849142D02*
X64222285Y-126896761D01*
X64365142Y-126944380D01*
X64460380Y-126944380D01*
X64603238Y-126896761D01*
X64698476Y-126801523D01*
X64746095Y-126706285D01*
X64793714Y-126515809D01*
X64793714Y-126372952D01*
X64746095Y-126182476D01*
X64698476Y-126087238D01*
X64603238Y-125992000D01*
X64460380Y-125944380D01*
X64365142Y-125944380D01*
X64222285Y-125992000D01*
X64174666Y-126039619D01*
X63317523Y-126277714D02*
X63317523Y-126944380D01*
X63555619Y-125896761D02*
X63793714Y-126611047D01*
X63174666Y-126611047D01*
%TO.C,C5*%
X126680166Y-126595142D02*
X126727785Y-126642761D01*
X126870642Y-126690380D01*
X126965880Y-126690380D01*
X127108738Y-126642761D01*
X127203976Y-126547523D01*
X127251595Y-126452285D01*
X127299214Y-126261809D01*
X127299214Y-126118952D01*
X127251595Y-125928476D01*
X127203976Y-125833238D01*
X127108738Y-125738000D01*
X126965880Y-125690380D01*
X126870642Y-125690380D01*
X126727785Y-125738000D01*
X126680166Y-125785619D01*
X125775404Y-125690380D02*
X126251595Y-125690380D01*
X126299214Y-126166571D01*
X126251595Y-126118952D01*
X126156357Y-126071333D01*
X125918261Y-126071333D01*
X125823023Y-126118952D01*
X125775404Y-126166571D01*
X125727785Y-126261809D01*
X125727785Y-126499904D01*
X125775404Y-126595142D01*
X125823023Y-126642761D01*
X125918261Y-126690380D01*
X126156357Y-126690380D01*
X126251595Y-126642761D01*
X126299214Y-126595142D01*
%TO.C,C6*%
X104582166Y-130151142D02*
X104629785Y-130198761D01*
X104772642Y-130246380D01*
X104867880Y-130246380D01*
X105010738Y-130198761D01*
X105105976Y-130103523D01*
X105153595Y-130008285D01*
X105201214Y-129817809D01*
X105201214Y-129674952D01*
X105153595Y-129484476D01*
X105105976Y-129389238D01*
X105010738Y-129294000D01*
X104867880Y-129246380D01*
X104772642Y-129246380D01*
X104629785Y-129294000D01*
X104582166Y-129341619D01*
X103725023Y-129246380D02*
X103915500Y-129246380D01*
X104010738Y-129294000D01*
X104058357Y-129341619D01*
X104153595Y-129484476D01*
X104201214Y-129674952D01*
X104201214Y-130055904D01*
X104153595Y-130151142D01*
X104105976Y-130198761D01*
X104010738Y-130246380D01*
X103820261Y-130246380D01*
X103725023Y-130198761D01*
X103677404Y-130151142D01*
X103629785Y-130055904D01*
X103629785Y-129817809D01*
X103677404Y-129722571D01*
X103725023Y-129674952D01*
X103820261Y-129627333D01*
X104010738Y-129627333D01*
X104105976Y-129674952D01*
X104153595Y-129722571D01*
X104201214Y-129817809D01*
%TO.C,C7*%
X85489166Y-128979142D02*
X85536785Y-129026761D01*
X85679642Y-129074380D01*
X85774880Y-129074380D01*
X85917738Y-129026761D01*
X86012976Y-128931523D01*
X86060595Y-128836285D01*
X86108214Y-128645809D01*
X86108214Y-128502952D01*
X86060595Y-128312476D01*
X86012976Y-128217238D01*
X85917738Y-128122000D01*
X85774880Y-128074380D01*
X85679642Y-128074380D01*
X85536785Y-128122000D01*
X85489166Y-128169619D01*
X85155833Y-128074380D02*
X84489166Y-128074380D01*
X84917738Y-129074380D01*
%TO.C,C8*%
X118022666Y-132945142D02*
X118070285Y-132992761D01*
X118213142Y-133040380D01*
X118308380Y-133040380D01*
X118451238Y-132992761D01*
X118546476Y-132897523D01*
X118594095Y-132802285D01*
X118641714Y-132611809D01*
X118641714Y-132468952D01*
X118594095Y-132278476D01*
X118546476Y-132183238D01*
X118451238Y-132088000D01*
X118308380Y-132040380D01*
X118213142Y-132040380D01*
X118070285Y-132088000D01*
X118022666Y-132135619D01*
X117451238Y-132468952D02*
X117546476Y-132421333D01*
X117594095Y-132373714D01*
X117641714Y-132278476D01*
X117641714Y-132230857D01*
X117594095Y-132135619D01*
X117546476Y-132088000D01*
X117451238Y-132040380D01*
X117260761Y-132040380D01*
X117165523Y-132088000D01*
X117117904Y-132135619D01*
X117070285Y-132230857D01*
X117070285Y-132278476D01*
X117117904Y-132373714D01*
X117165523Y-132421333D01*
X117260761Y-132468952D01*
X117451238Y-132468952D01*
X117546476Y-132516571D01*
X117594095Y-132564190D01*
X117641714Y-132659428D01*
X117641714Y-132849904D01*
X117594095Y-132945142D01*
X117546476Y-132992761D01*
X117451238Y-133040380D01*
X117260761Y-133040380D01*
X117165523Y-132992761D01*
X117117904Y-132945142D01*
X117070285Y-132849904D01*
X117070285Y-132659428D01*
X117117904Y-132564190D01*
X117165523Y-132516571D01*
X117260761Y-132468952D01*
%TO.C,C9*%
X94930166Y-129643142D02*
X94977785Y-129690761D01*
X95120642Y-129738380D01*
X95215880Y-129738380D01*
X95358738Y-129690761D01*
X95453976Y-129595523D01*
X95501595Y-129500285D01*
X95549214Y-129309809D01*
X95549214Y-129166952D01*
X95501595Y-128976476D01*
X95453976Y-128881238D01*
X95358738Y-128786000D01*
X95215880Y-128738380D01*
X95120642Y-128738380D01*
X94977785Y-128786000D01*
X94930166Y-128833619D01*
X94453976Y-129738380D02*
X94263500Y-129738380D01*
X94168261Y-129690761D01*
X94120642Y-129643142D01*
X94025404Y-129500285D01*
X93977785Y-129309809D01*
X93977785Y-128928857D01*
X94025404Y-128833619D01*
X94073023Y-128786000D01*
X94168261Y-128738380D01*
X94358738Y-128738380D01*
X94453976Y-128786000D01*
X94501595Y-128833619D01*
X94549214Y-128928857D01*
X94549214Y-129166952D01*
X94501595Y-129262190D01*
X94453976Y-129309809D01*
X94358738Y-129357428D01*
X94168261Y-129357428D01*
X94073023Y-129309809D01*
X94025404Y-129262190D01*
X93977785Y-129166952D01*
%TO.C,C10*%
X68968857Y-133453142D02*
X69016476Y-133500761D01*
X69159333Y-133548380D01*
X69254571Y-133548380D01*
X69397428Y-133500761D01*
X69492666Y-133405523D01*
X69540285Y-133310285D01*
X69587904Y-133119809D01*
X69587904Y-132976952D01*
X69540285Y-132786476D01*
X69492666Y-132691238D01*
X69397428Y-132596000D01*
X69254571Y-132548380D01*
X69159333Y-132548380D01*
X69016476Y-132596000D01*
X68968857Y-132643619D01*
X68016476Y-133548380D02*
X68587904Y-133548380D01*
X68302190Y-133548380D02*
X68302190Y-132548380D01*
X68397428Y-132691238D01*
X68492666Y-132786476D01*
X68587904Y-132834095D01*
X67397428Y-132548380D02*
X67302190Y-132548380D01*
X67206952Y-132596000D01*
X67159333Y-132643619D01*
X67111714Y-132738857D01*
X67064095Y-132929333D01*
X67064095Y-133167428D01*
X67111714Y-133357904D01*
X67159333Y-133453142D01*
X67206952Y-133500761D01*
X67302190Y-133548380D01*
X67397428Y-133548380D01*
X67492666Y-133500761D01*
X67540285Y-133453142D01*
X67587904Y-133357904D01*
X67635523Y-133167428D01*
X67635523Y-132929333D01*
X67587904Y-132738857D01*
X67540285Y-132643619D01*
X67492666Y-132596000D01*
X67397428Y-132548380D01*
%TO.C,C11*%
X123070857Y-133199142D02*
X123118476Y-133246761D01*
X123261333Y-133294380D01*
X123356571Y-133294380D01*
X123499428Y-133246761D01*
X123594666Y-133151523D01*
X123642285Y-133056285D01*
X123689904Y-132865809D01*
X123689904Y-132722952D01*
X123642285Y-132532476D01*
X123594666Y-132437238D01*
X123499428Y-132342000D01*
X123356571Y-132294380D01*
X123261333Y-132294380D01*
X123118476Y-132342000D01*
X123070857Y-132389619D01*
X122118476Y-133294380D02*
X122689904Y-133294380D01*
X122404190Y-133294380D02*
X122404190Y-132294380D01*
X122499428Y-132437238D01*
X122594666Y-132532476D01*
X122689904Y-132580095D01*
X121166095Y-133294380D02*
X121737523Y-133294380D01*
X121451809Y-133294380D02*
X121451809Y-132294380D01*
X121547047Y-132437238D01*
X121642285Y-132532476D01*
X121737523Y-132580095D01*
%TO.C,C12*%
X100443357Y-129643142D02*
X100490976Y-129690761D01*
X100633833Y-129738380D01*
X100729071Y-129738380D01*
X100871928Y-129690761D01*
X100967166Y-129595523D01*
X101014785Y-129500285D01*
X101062404Y-129309809D01*
X101062404Y-129166952D01*
X101014785Y-128976476D01*
X100967166Y-128881238D01*
X100871928Y-128786000D01*
X100729071Y-128738380D01*
X100633833Y-128738380D01*
X100490976Y-128786000D01*
X100443357Y-128833619D01*
X99490976Y-129738380D02*
X100062404Y-129738380D01*
X99776690Y-129738380D02*
X99776690Y-128738380D01*
X99871928Y-128881238D01*
X99967166Y-128976476D01*
X100062404Y-129024095D01*
X99110023Y-128833619D02*
X99062404Y-128786000D01*
X98967166Y-128738380D01*
X98729071Y-128738380D01*
X98633833Y-128786000D01*
X98586214Y-128833619D01*
X98538595Y-128928857D01*
X98538595Y-129024095D01*
X98586214Y-129166952D01*
X99157642Y-129738380D01*
X98538595Y-129738380D01*
%TO.C,C13*%
X81668857Y-129135142D02*
X81716476Y-129182761D01*
X81859333Y-129230380D01*
X81954571Y-129230380D01*
X82097428Y-129182761D01*
X82192666Y-129087523D01*
X82240285Y-128992285D01*
X82287904Y-128801809D01*
X82287904Y-128658952D01*
X82240285Y-128468476D01*
X82192666Y-128373238D01*
X82097428Y-128278000D01*
X81954571Y-128230380D01*
X81859333Y-128230380D01*
X81716476Y-128278000D01*
X81668857Y-128325619D01*
X80716476Y-129230380D02*
X81287904Y-129230380D01*
X81002190Y-129230380D02*
X81002190Y-128230380D01*
X81097428Y-128373238D01*
X81192666Y-128468476D01*
X81287904Y-128516095D01*
X80383142Y-128230380D02*
X79764095Y-128230380D01*
X80097428Y-128611333D01*
X79954571Y-128611333D01*
X79859333Y-128658952D01*
X79811714Y-128706571D01*
X79764095Y-128801809D01*
X79764095Y-129039904D01*
X79811714Y-129135142D01*
X79859333Y-129182761D01*
X79954571Y-129230380D01*
X80240285Y-129230380D01*
X80335523Y-129182761D01*
X80383142Y-129135142D01*
%TO.C,C14*%
X122816857Y-116689142D02*
X122864476Y-116736761D01*
X123007333Y-116784380D01*
X123102571Y-116784380D01*
X123245428Y-116736761D01*
X123340666Y-116641523D01*
X123388285Y-116546285D01*
X123435904Y-116355809D01*
X123435904Y-116212952D01*
X123388285Y-116022476D01*
X123340666Y-115927238D01*
X123245428Y-115832000D01*
X123102571Y-115784380D01*
X123007333Y-115784380D01*
X122864476Y-115832000D01*
X122816857Y-115879619D01*
X121864476Y-116784380D02*
X122435904Y-116784380D01*
X122150190Y-116784380D02*
X122150190Y-115784380D01*
X122245428Y-115927238D01*
X122340666Y-116022476D01*
X122435904Y-116070095D01*
X121007333Y-116117714D02*
X121007333Y-116784380D01*
X121245428Y-115736761D02*
X121483523Y-116451047D01*
X120864476Y-116451047D01*
%TO.C,C15*%
X113926857Y-119835142D02*
X113974476Y-119882761D01*
X114117333Y-119930380D01*
X114212571Y-119930380D01*
X114355428Y-119882761D01*
X114450666Y-119787523D01*
X114498285Y-119692285D01*
X114545904Y-119501809D01*
X114545904Y-119358952D01*
X114498285Y-119168476D01*
X114450666Y-119073238D01*
X114355428Y-118978000D01*
X114212571Y-118930380D01*
X114117333Y-118930380D01*
X113974476Y-118978000D01*
X113926857Y-119025619D01*
X112974476Y-119930380D02*
X113545904Y-119930380D01*
X113260190Y-119930380D02*
X113260190Y-118930380D01*
X113355428Y-119073238D01*
X113450666Y-119168476D01*
X113545904Y-119216095D01*
X112069714Y-118930380D02*
X112545904Y-118930380D01*
X112593523Y-119406571D01*
X112545904Y-119358952D01*
X112450666Y-119311333D01*
X112212571Y-119311333D01*
X112117333Y-119358952D01*
X112069714Y-119406571D01*
X112022095Y-119501809D01*
X112022095Y-119739904D01*
X112069714Y-119835142D01*
X112117333Y-119882761D01*
X112212571Y-119930380D01*
X112450666Y-119930380D01*
X112545904Y-119882761D01*
X112593523Y-119835142D01*
%TO.C,C16*%
X109354857Y-126849142D02*
X109402476Y-126896761D01*
X109545333Y-126944380D01*
X109640571Y-126944380D01*
X109783428Y-126896761D01*
X109878666Y-126801523D01*
X109926285Y-126706285D01*
X109973904Y-126515809D01*
X109973904Y-126372952D01*
X109926285Y-126182476D01*
X109878666Y-126087238D01*
X109783428Y-125992000D01*
X109640571Y-125944380D01*
X109545333Y-125944380D01*
X109402476Y-125992000D01*
X109354857Y-126039619D01*
X108402476Y-126944380D02*
X108973904Y-126944380D01*
X108688190Y-126944380D02*
X108688190Y-125944380D01*
X108783428Y-126087238D01*
X108878666Y-126182476D01*
X108973904Y-126230095D01*
X107545333Y-125944380D02*
X107735809Y-125944380D01*
X107831047Y-125992000D01*
X107878666Y-126039619D01*
X107973904Y-126182476D01*
X108021523Y-126372952D01*
X108021523Y-126753904D01*
X107973904Y-126849142D01*
X107926285Y-126896761D01*
X107831047Y-126944380D01*
X107640571Y-126944380D01*
X107545333Y-126896761D01*
X107497714Y-126849142D01*
X107450095Y-126753904D01*
X107450095Y-126515809D01*
X107497714Y-126420571D01*
X107545333Y-126372952D01*
X107640571Y-126325333D01*
X107831047Y-126325333D01*
X107926285Y-126372952D01*
X107973904Y-126420571D01*
X108021523Y-126515809D01*
%TO.C,C17*%
X90580357Y-122375142D02*
X90627976Y-122422761D01*
X90770833Y-122470380D01*
X90866071Y-122470380D01*
X91008928Y-122422761D01*
X91104166Y-122327523D01*
X91151785Y-122232285D01*
X91199404Y-122041809D01*
X91199404Y-121898952D01*
X91151785Y-121708476D01*
X91104166Y-121613238D01*
X91008928Y-121518000D01*
X90866071Y-121470380D01*
X90770833Y-121470380D01*
X90627976Y-121518000D01*
X90580357Y-121565619D01*
X89627976Y-122470380D02*
X90199404Y-122470380D01*
X89913690Y-122470380D02*
X89913690Y-121470380D01*
X90008928Y-121613238D01*
X90104166Y-121708476D01*
X90199404Y-121756095D01*
X89294642Y-121470380D02*
X88627976Y-121470380D01*
X89056547Y-122470380D01*
%TO.C,C18*%
X85986857Y-122531142D02*
X86034476Y-122578761D01*
X86177333Y-122626380D01*
X86272571Y-122626380D01*
X86415428Y-122578761D01*
X86510666Y-122483523D01*
X86558285Y-122388285D01*
X86605904Y-122197809D01*
X86605904Y-122054952D01*
X86558285Y-121864476D01*
X86510666Y-121769238D01*
X86415428Y-121674000D01*
X86272571Y-121626380D01*
X86177333Y-121626380D01*
X86034476Y-121674000D01*
X85986857Y-121721619D01*
X85034476Y-122626380D02*
X85605904Y-122626380D01*
X85320190Y-122626380D02*
X85320190Y-121626380D01*
X85415428Y-121769238D01*
X85510666Y-121864476D01*
X85605904Y-121912095D01*
X84463047Y-122054952D02*
X84558285Y-122007333D01*
X84605904Y-121959714D01*
X84653523Y-121864476D01*
X84653523Y-121816857D01*
X84605904Y-121721619D01*
X84558285Y-121674000D01*
X84463047Y-121626380D01*
X84272571Y-121626380D01*
X84177333Y-121674000D01*
X84129714Y-121721619D01*
X84082095Y-121816857D01*
X84082095Y-121864476D01*
X84129714Y-121959714D01*
X84177333Y-122007333D01*
X84272571Y-122054952D01*
X84463047Y-122054952D01*
X84558285Y-122102571D01*
X84605904Y-122150190D01*
X84653523Y-122245428D01*
X84653523Y-122435904D01*
X84605904Y-122531142D01*
X84558285Y-122578761D01*
X84463047Y-122626380D01*
X84272571Y-122626380D01*
X84177333Y-122578761D01*
X84129714Y-122531142D01*
X84082095Y-122435904D01*
X84082095Y-122245428D01*
X84129714Y-122150190D01*
X84177333Y-122102571D01*
X84272571Y-122054952D01*
%TO.C,C19*%
X58777142Y-113403142D02*
X58824761Y-113355523D01*
X58872380Y-113212666D01*
X58872380Y-113117428D01*
X58824761Y-112974571D01*
X58729523Y-112879333D01*
X58634285Y-112831714D01*
X58443809Y-112784095D01*
X58300952Y-112784095D01*
X58110476Y-112831714D01*
X58015238Y-112879333D01*
X57920000Y-112974571D01*
X57872380Y-113117428D01*
X57872380Y-113212666D01*
X57920000Y-113355523D01*
X57967619Y-113403142D01*
X58872380Y-114355523D02*
X58872380Y-113784095D01*
X58872380Y-114069809D02*
X57872380Y-114069809D01*
X58015238Y-113974571D01*
X58110476Y-113879333D01*
X58158095Y-113784095D01*
X58872380Y-114831714D02*
X58872380Y-115022190D01*
X58824761Y-115117428D01*
X58777142Y-115165047D01*
X58634285Y-115260285D01*
X58443809Y-115307904D01*
X58062857Y-115307904D01*
X57967619Y-115260285D01*
X57920000Y-115212666D01*
X57872380Y-115117428D01*
X57872380Y-114926952D01*
X57920000Y-114831714D01*
X57967619Y-114784095D01*
X58062857Y-114736476D01*
X58300952Y-114736476D01*
X58396190Y-114784095D01*
X58443809Y-114831714D01*
X58491428Y-114926952D01*
X58491428Y-115117428D01*
X58443809Y-115212666D01*
X58396190Y-115260285D01*
X58300952Y-115307904D01*
%TO.C,C20*%
X122838357Y-119991142D02*
X122885976Y-120038761D01*
X123028833Y-120086380D01*
X123124071Y-120086380D01*
X123266928Y-120038761D01*
X123362166Y-119943523D01*
X123409785Y-119848285D01*
X123457404Y-119657809D01*
X123457404Y-119514952D01*
X123409785Y-119324476D01*
X123362166Y-119229238D01*
X123266928Y-119134000D01*
X123124071Y-119086380D01*
X123028833Y-119086380D01*
X122885976Y-119134000D01*
X122838357Y-119181619D01*
X122457404Y-119181619D02*
X122409785Y-119134000D01*
X122314547Y-119086380D01*
X122076452Y-119086380D01*
X121981214Y-119134000D01*
X121933595Y-119181619D01*
X121885976Y-119276857D01*
X121885976Y-119372095D01*
X121933595Y-119514952D01*
X122505023Y-120086380D01*
X121885976Y-120086380D01*
X121266928Y-119086380D02*
X121171690Y-119086380D01*
X121076452Y-119134000D01*
X121028833Y-119181619D01*
X120981214Y-119276857D01*
X120933595Y-119467333D01*
X120933595Y-119705428D01*
X120981214Y-119895904D01*
X121028833Y-119991142D01*
X121076452Y-120038761D01*
X121171690Y-120086380D01*
X121266928Y-120086380D01*
X121362166Y-120038761D01*
X121409785Y-119991142D01*
X121457404Y-119895904D01*
X121505023Y-119705428D01*
X121505023Y-119467333D01*
X121457404Y-119276857D01*
X121409785Y-119181619D01*
X121362166Y-119134000D01*
X121266928Y-119086380D01*
%TO.C,C21*%
X105058357Y-123547142D02*
X105105976Y-123594761D01*
X105248833Y-123642380D01*
X105344071Y-123642380D01*
X105486928Y-123594761D01*
X105582166Y-123499523D01*
X105629785Y-123404285D01*
X105677404Y-123213809D01*
X105677404Y-123070952D01*
X105629785Y-122880476D01*
X105582166Y-122785238D01*
X105486928Y-122690000D01*
X105344071Y-122642380D01*
X105248833Y-122642380D01*
X105105976Y-122690000D01*
X105058357Y-122737619D01*
X104677404Y-122737619D02*
X104629785Y-122690000D01*
X104534547Y-122642380D01*
X104296452Y-122642380D01*
X104201214Y-122690000D01*
X104153595Y-122737619D01*
X104105976Y-122832857D01*
X104105976Y-122928095D01*
X104153595Y-123070952D01*
X104725023Y-123642380D01*
X104105976Y-123642380D01*
X103153595Y-123642380D02*
X103725023Y-123642380D01*
X103439309Y-123642380D02*
X103439309Y-122642380D01*
X103534547Y-122785238D01*
X103629785Y-122880476D01*
X103725023Y-122928095D01*
%TO.C,C22*%
X77096857Y-123801142D02*
X77144476Y-123848761D01*
X77287333Y-123896380D01*
X77382571Y-123896380D01*
X77525428Y-123848761D01*
X77620666Y-123753523D01*
X77668285Y-123658285D01*
X77715904Y-123467809D01*
X77715904Y-123324952D01*
X77668285Y-123134476D01*
X77620666Y-123039238D01*
X77525428Y-122944000D01*
X77382571Y-122896380D01*
X77287333Y-122896380D01*
X77144476Y-122944000D01*
X77096857Y-122991619D01*
X76715904Y-122991619D02*
X76668285Y-122944000D01*
X76573047Y-122896380D01*
X76334952Y-122896380D01*
X76239714Y-122944000D01*
X76192095Y-122991619D01*
X76144476Y-123086857D01*
X76144476Y-123182095D01*
X76192095Y-123324952D01*
X76763523Y-123896380D01*
X76144476Y-123896380D01*
X75763523Y-122991619D02*
X75715904Y-122944000D01*
X75620666Y-122896380D01*
X75382571Y-122896380D01*
X75287333Y-122944000D01*
X75239714Y-122991619D01*
X75192095Y-123086857D01*
X75192095Y-123182095D01*
X75239714Y-123324952D01*
X75811142Y-123896380D01*
X75192095Y-123896380D01*
%TO.C,C23*%
X113651357Y-126087142D02*
X113698976Y-126134761D01*
X113841833Y-126182380D01*
X113937071Y-126182380D01*
X114079928Y-126134761D01*
X114175166Y-126039523D01*
X114222785Y-125944285D01*
X114270404Y-125753809D01*
X114270404Y-125610952D01*
X114222785Y-125420476D01*
X114175166Y-125325238D01*
X114079928Y-125230000D01*
X113937071Y-125182380D01*
X113841833Y-125182380D01*
X113698976Y-125230000D01*
X113651357Y-125277619D01*
X113270404Y-125277619D02*
X113222785Y-125230000D01*
X113127547Y-125182380D01*
X112889452Y-125182380D01*
X112794214Y-125230000D01*
X112746595Y-125277619D01*
X112698976Y-125372857D01*
X112698976Y-125468095D01*
X112746595Y-125610952D01*
X113318023Y-126182380D01*
X112698976Y-126182380D01*
X112365642Y-125182380D02*
X111746595Y-125182380D01*
X112079928Y-125563333D01*
X111937071Y-125563333D01*
X111841833Y-125610952D01*
X111794214Y-125658571D01*
X111746595Y-125753809D01*
X111746595Y-125991904D01*
X111794214Y-126087142D01*
X111841833Y-126134761D01*
X111937071Y-126182380D01*
X112222785Y-126182380D01*
X112318023Y-126134761D01*
X112365642Y-126087142D01*
%TO.C,C24*%
X90580357Y-128979142D02*
X90627976Y-129026761D01*
X90770833Y-129074380D01*
X90866071Y-129074380D01*
X91008928Y-129026761D01*
X91104166Y-128931523D01*
X91151785Y-128836285D01*
X91199404Y-128645809D01*
X91199404Y-128502952D01*
X91151785Y-128312476D01*
X91104166Y-128217238D01*
X91008928Y-128122000D01*
X90866071Y-128074380D01*
X90770833Y-128074380D01*
X90627976Y-128122000D01*
X90580357Y-128169619D01*
X90199404Y-128169619D02*
X90151785Y-128122000D01*
X90056547Y-128074380D01*
X89818452Y-128074380D01*
X89723214Y-128122000D01*
X89675595Y-128169619D01*
X89627976Y-128264857D01*
X89627976Y-128360095D01*
X89675595Y-128502952D01*
X90247023Y-129074380D01*
X89627976Y-129074380D01*
X88770833Y-128407714D02*
X88770833Y-129074380D01*
X89008928Y-128026761D02*
X89247023Y-128741047D01*
X88627976Y-128741047D01*
%TO.C,C25*%
X64375357Y-120499142D02*
X64422976Y-120546761D01*
X64565833Y-120594380D01*
X64661071Y-120594380D01*
X64803928Y-120546761D01*
X64899166Y-120451523D01*
X64946785Y-120356285D01*
X64994404Y-120165809D01*
X64994404Y-120022952D01*
X64946785Y-119832476D01*
X64899166Y-119737238D01*
X64803928Y-119642000D01*
X64661071Y-119594380D01*
X64565833Y-119594380D01*
X64422976Y-119642000D01*
X64375357Y-119689619D01*
X63994404Y-119689619D02*
X63946785Y-119642000D01*
X63851547Y-119594380D01*
X63613452Y-119594380D01*
X63518214Y-119642000D01*
X63470595Y-119689619D01*
X63422976Y-119784857D01*
X63422976Y-119880095D01*
X63470595Y-120022952D01*
X64042023Y-120594380D01*
X63422976Y-120594380D01*
X62518214Y-119594380D02*
X62994404Y-119594380D01*
X63042023Y-120070571D01*
X62994404Y-120022952D01*
X62899166Y-119975333D01*
X62661071Y-119975333D01*
X62565833Y-120022952D01*
X62518214Y-120070571D01*
X62470595Y-120165809D01*
X62470595Y-120403904D01*
X62518214Y-120499142D01*
X62565833Y-120546761D01*
X62661071Y-120594380D01*
X62899166Y-120594380D01*
X62994404Y-120546761D01*
X63042023Y-120499142D01*
%TO.C,C26*%
X71487357Y-142949142D02*
X71534976Y-142996761D01*
X71677833Y-143044380D01*
X71773071Y-143044380D01*
X71915928Y-142996761D01*
X72011166Y-142901523D01*
X72058785Y-142806285D01*
X72106404Y-142615809D01*
X72106404Y-142472952D01*
X72058785Y-142282476D01*
X72011166Y-142187238D01*
X71915928Y-142092000D01*
X71773071Y-142044380D01*
X71677833Y-142044380D01*
X71534976Y-142092000D01*
X71487357Y-142139619D01*
X71106404Y-142139619D02*
X71058785Y-142092000D01*
X70963547Y-142044380D01*
X70725452Y-142044380D01*
X70630214Y-142092000D01*
X70582595Y-142139619D01*
X70534976Y-142234857D01*
X70534976Y-142330095D01*
X70582595Y-142472952D01*
X71154023Y-143044380D01*
X70534976Y-143044380D01*
X69677833Y-142044380D02*
X69868309Y-142044380D01*
X69963547Y-142092000D01*
X70011166Y-142139619D01*
X70106404Y-142282476D01*
X70154023Y-142472952D01*
X70154023Y-142853904D01*
X70106404Y-142949142D01*
X70058785Y-142996761D01*
X69963547Y-143044380D01*
X69773071Y-143044380D01*
X69677833Y-142996761D01*
X69630214Y-142949142D01*
X69582595Y-142853904D01*
X69582595Y-142615809D01*
X69630214Y-142520571D01*
X69677833Y-142472952D01*
X69773071Y-142425333D01*
X69963547Y-142425333D01*
X70058785Y-142472952D01*
X70106404Y-142520571D01*
X70154023Y-142615809D01*
%TO.C,C27*%
X109122357Y-147013142D02*
X109169976Y-147060761D01*
X109312833Y-147108380D01*
X109408071Y-147108380D01*
X109550928Y-147060761D01*
X109646166Y-146965523D01*
X109693785Y-146870285D01*
X109741404Y-146679809D01*
X109741404Y-146536952D01*
X109693785Y-146346476D01*
X109646166Y-146251238D01*
X109550928Y-146156000D01*
X109408071Y-146108380D01*
X109312833Y-146108380D01*
X109169976Y-146156000D01*
X109122357Y-146203619D01*
X108741404Y-146203619D02*
X108693785Y-146156000D01*
X108598547Y-146108380D01*
X108360452Y-146108380D01*
X108265214Y-146156000D01*
X108217595Y-146203619D01*
X108169976Y-146298857D01*
X108169976Y-146394095D01*
X108217595Y-146536952D01*
X108789023Y-147108380D01*
X108169976Y-147108380D01*
X107836642Y-146108380D02*
X107169976Y-146108380D01*
X107598547Y-147108380D01*
%TO.C,C29*%
X71487357Y-146661142D02*
X71534976Y-146708761D01*
X71677833Y-146756380D01*
X71773071Y-146756380D01*
X71915928Y-146708761D01*
X72011166Y-146613523D01*
X72058785Y-146518285D01*
X72106404Y-146327809D01*
X72106404Y-146184952D01*
X72058785Y-145994476D01*
X72011166Y-145899238D01*
X71915928Y-145804000D01*
X71773071Y-145756380D01*
X71677833Y-145756380D01*
X71534976Y-145804000D01*
X71487357Y-145851619D01*
X71106404Y-145851619D02*
X71058785Y-145804000D01*
X70963547Y-145756380D01*
X70725452Y-145756380D01*
X70630214Y-145804000D01*
X70582595Y-145851619D01*
X70534976Y-145946857D01*
X70534976Y-146042095D01*
X70582595Y-146184952D01*
X71154023Y-146756380D01*
X70534976Y-146756380D01*
X70058785Y-146756380D02*
X69868309Y-146756380D01*
X69773071Y-146708761D01*
X69725452Y-146661142D01*
X69630214Y-146518285D01*
X69582595Y-146327809D01*
X69582595Y-145946857D01*
X69630214Y-145851619D01*
X69677833Y-145804000D01*
X69773071Y-145756380D01*
X69963547Y-145756380D01*
X70058785Y-145804000D01*
X70106404Y-145851619D01*
X70154023Y-145946857D01*
X70154023Y-146184952D01*
X70106404Y-146280190D01*
X70058785Y-146327809D01*
X69963547Y-146375428D01*
X69773071Y-146375428D01*
X69677833Y-146327809D01*
X69630214Y-146280190D01*
X69582595Y-146184952D01*
%TO.C,C31*%
X95130857Y-139549142D02*
X95178476Y-139596761D01*
X95321333Y-139644380D01*
X95416571Y-139644380D01*
X95559428Y-139596761D01*
X95654666Y-139501523D01*
X95702285Y-139406285D01*
X95749904Y-139215809D01*
X95749904Y-139072952D01*
X95702285Y-138882476D01*
X95654666Y-138787238D01*
X95559428Y-138692000D01*
X95416571Y-138644380D01*
X95321333Y-138644380D01*
X95178476Y-138692000D01*
X95130857Y-138739619D01*
X94797523Y-138644380D02*
X94178476Y-138644380D01*
X94511809Y-139025333D01*
X94368952Y-139025333D01*
X94273714Y-139072952D01*
X94226095Y-139120571D01*
X94178476Y-139215809D01*
X94178476Y-139453904D01*
X94226095Y-139549142D01*
X94273714Y-139596761D01*
X94368952Y-139644380D01*
X94654666Y-139644380D01*
X94749904Y-139596761D01*
X94797523Y-139549142D01*
X93226095Y-139644380D02*
X93797523Y-139644380D01*
X93511809Y-139644380D02*
X93511809Y-138644380D01*
X93607047Y-138787238D01*
X93702285Y-138882476D01*
X93797523Y-138930095D01*
%TO.C,C34*%
X71487357Y-153871142D02*
X71534976Y-153918761D01*
X71677833Y-153966380D01*
X71773071Y-153966380D01*
X71915928Y-153918761D01*
X72011166Y-153823523D01*
X72058785Y-153728285D01*
X72106404Y-153537809D01*
X72106404Y-153394952D01*
X72058785Y-153204476D01*
X72011166Y-153109238D01*
X71915928Y-153014000D01*
X71773071Y-152966380D01*
X71677833Y-152966380D01*
X71534976Y-153014000D01*
X71487357Y-153061619D01*
X71154023Y-152966380D02*
X70534976Y-152966380D01*
X70868309Y-153347333D01*
X70725452Y-153347333D01*
X70630214Y-153394952D01*
X70582595Y-153442571D01*
X70534976Y-153537809D01*
X70534976Y-153775904D01*
X70582595Y-153871142D01*
X70630214Y-153918761D01*
X70725452Y-153966380D01*
X71011166Y-153966380D01*
X71106404Y-153918761D01*
X71154023Y-153871142D01*
X69677833Y-153299714D02*
X69677833Y-153966380D01*
X69915928Y-152918761D02*
X70154023Y-153633047D01*
X69534976Y-153633047D01*
%TO.C,C35*%
X113672857Y-152503142D02*
X113720476Y-152550761D01*
X113863333Y-152598380D01*
X113958571Y-152598380D01*
X114101428Y-152550761D01*
X114196666Y-152455523D01*
X114244285Y-152360285D01*
X114291904Y-152169809D01*
X114291904Y-152026952D01*
X114244285Y-151836476D01*
X114196666Y-151741238D01*
X114101428Y-151646000D01*
X113958571Y-151598380D01*
X113863333Y-151598380D01*
X113720476Y-151646000D01*
X113672857Y-151693619D01*
X113339523Y-151598380D02*
X112720476Y-151598380D01*
X113053809Y-151979333D01*
X112910952Y-151979333D01*
X112815714Y-152026952D01*
X112768095Y-152074571D01*
X112720476Y-152169809D01*
X112720476Y-152407904D01*
X112768095Y-152503142D01*
X112815714Y-152550761D01*
X112910952Y-152598380D01*
X113196666Y-152598380D01*
X113291904Y-152550761D01*
X113339523Y-152503142D01*
X111815714Y-151598380D02*
X112291904Y-151598380D01*
X112339523Y-152074571D01*
X112291904Y-152026952D01*
X112196666Y-151979333D01*
X111958571Y-151979333D01*
X111863333Y-152026952D01*
X111815714Y-152074571D01*
X111768095Y-152169809D01*
X111768095Y-152407904D01*
X111815714Y-152503142D01*
X111863333Y-152550761D01*
X111958571Y-152598380D01*
X112196666Y-152598380D01*
X112291904Y-152550761D01*
X112339523Y-152503142D01*
%TO.C,C36*%
X56895142Y-137469142D02*
X56942761Y-137421523D01*
X56990380Y-137278666D01*
X56990380Y-137183428D01*
X56942761Y-137040571D01*
X56847523Y-136945333D01*
X56752285Y-136897714D01*
X56561809Y-136850095D01*
X56418952Y-136850095D01*
X56228476Y-136897714D01*
X56133238Y-136945333D01*
X56038000Y-137040571D01*
X55990380Y-137183428D01*
X55990380Y-137278666D01*
X56038000Y-137421523D01*
X56085619Y-137469142D01*
X55990380Y-137802476D02*
X55990380Y-138421523D01*
X56371333Y-138088190D01*
X56371333Y-138231047D01*
X56418952Y-138326285D01*
X56466571Y-138373904D01*
X56561809Y-138421523D01*
X56799904Y-138421523D01*
X56895142Y-138373904D01*
X56942761Y-138326285D01*
X56990380Y-138231047D01*
X56990380Y-137945333D01*
X56942761Y-137850095D01*
X56895142Y-137802476D01*
X55990380Y-139278666D02*
X55990380Y-139088190D01*
X56038000Y-138992952D01*
X56085619Y-138945333D01*
X56228476Y-138850095D01*
X56418952Y-138802476D01*
X56799904Y-138802476D01*
X56895142Y-138850095D01*
X56942761Y-138897714D01*
X56990380Y-138992952D01*
X56990380Y-139183428D01*
X56942761Y-139278666D01*
X56895142Y-139326285D01*
X56799904Y-139373904D01*
X56561809Y-139373904D01*
X56466571Y-139326285D01*
X56418952Y-139278666D01*
X56371333Y-139183428D01*
X56371333Y-138992952D01*
X56418952Y-138897714D01*
X56466571Y-138850095D01*
X56561809Y-138802476D01*
%TO.C,C37*%
X52017142Y-113424642D02*
X52064761Y-113377023D01*
X52112380Y-113234166D01*
X52112380Y-113138928D01*
X52064761Y-112996071D01*
X51969523Y-112900833D01*
X51874285Y-112853214D01*
X51683809Y-112805595D01*
X51540952Y-112805595D01*
X51350476Y-112853214D01*
X51255238Y-112900833D01*
X51160000Y-112996071D01*
X51112380Y-113138928D01*
X51112380Y-113234166D01*
X51160000Y-113377023D01*
X51207619Y-113424642D01*
X51112380Y-113757976D02*
X51112380Y-114377023D01*
X51493333Y-114043690D01*
X51493333Y-114186547D01*
X51540952Y-114281785D01*
X51588571Y-114329404D01*
X51683809Y-114377023D01*
X51921904Y-114377023D01*
X52017142Y-114329404D01*
X52064761Y-114281785D01*
X52112380Y-114186547D01*
X52112380Y-113900833D01*
X52064761Y-113805595D01*
X52017142Y-113757976D01*
X51112380Y-114710357D02*
X51112380Y-115377023D01*
X52112380Y-114948452D01*
%TO.C,C41*%
X76102357Y-138787142D02*
X76149976Y-138834761D01*
X76292833Y-138882380D01*
X76388071Y-138882380D01*
X76530928Y-138834761D01*
X76626166Y-138739523D01*
X76673785Y-138644285D01*
X76721404Y-138453809D01*
X76721404Y-138310952D01*
X76673785Y-138120476D01*
X76626166Y-138025238D01*
X76530928Y-137930000D01*
X76388071Y-137882380D01*
X76292833Y-137882380D01*
X76149976Y-137930000D01*
X76102357Y-137977619D01*
X75245214Y-138215714D02*
X75245214Y-138882380D01*
X75483309Y-137834761D02*
X75721404Y-138549047D01*
X75102357Y-138549047D01*
X74197595Y-138882380D02*
X74769023Y-138882380D01*
X74483309Y-138882380D02*
X74483309Y-137882380D01*
X74578547Y-138025238D01*
X74673785Y-138120476D01*
X74769023Y-138168095D01*
%TO.C,C42*%
X62872857Y-141581142D02*
X62920476Y-141628761D01*
X63063333Y-141676380D01*
X63158571Y-141676380D01*
X63301428Y-141628761D01*
X63396666Y-141533523D01*
X63444285Y-141438285D01*
X63491904Y-141247809D01*
X63491904Y-141104952D01*
X63444285Y-140914476D01*
X63396666Y-140819238D01*
X63301428Y-140724000D01*
X63158571Y-140676380D01*
X63063333Y-140676380D01*
X62920476Y-140724000D01*
X62872857Y-140771619D01*
X62015714Y-141009714D02*
X62015714Y-141676380D01*
X62253809Y-140628761D02*
X62491904Y-141343047D01*
X61872857Y-141343047D01*
X61539523Y-140771619D02*
X61491904Y-140724000D01*
X61396666Y-140676380D01*
X61158571Y-140676380D01*
X61063333Y-140724000D01*
X61015714Y-140771619D01*
X60968095Y-140866857D01*
X60968095Y-140962095D01*
X61015714Y-141104952D01*
X61587142Y-141676380D01*
X60968095Y-141676380D01*
%TO.C,C44*%
X114667357Y-149455142D02*
X114714976Y-149502761D01*
X114857833Y-149550380D01*
X114953071Y-149550380D01*
X115095928Y-149502761D01*
X115191166Y-149407523D01*
X115238785Y-149312285D01*
X115286404Y-149121809D01*
X115286404Y-148978952D01*
X115238785Y-148788476D01*
X115191166Y-148693238D01*
X115095928Y-148598000D01*
X114953071Y-148550380D01*
X114857833Y-148550380D01*
X114714976Y-148598000D01*
X114667357Y-148645619D01*
X113810214Y-148883714D02*
X113810214Y-149550380D01*
X114048309Y-148502761D02*
X114286404Y-149217047D01*
X113667357Y-149217047D01*
X112857833Y-148883714D02*
X112857833Y-149550380D01*
X113095928Y-148502761D02*
X113334023Y-149217047D01*
X112714976Y-149217047D01*
%TO.C,J1*%
X63714380Y-109648666D02*
X64428666Y-109648666D01*
X64571523Y-109601047D01*
X64666761Y-109505809D01*
X64714380Y-109362952D01*
X64714380Y-109267714D01*
X64714380Y-110648666D02*
X64714380Y-110077238D01*
X64714380Y-110362952D02*
X63714380Y-110362952D01*
X63857238Y-110267714D01*
X63952476Y-110172476D01*
X64000095Y-110077238D01*
%TO.C,J2*%
X81704380Y-109648666D02*
X82418666Y-109648666D01*
X82561523Y-109601047D01*
X82656761Y-109505809D01*
X82704380Y-109362952D01*
X82704380Y-109267714D01*
X81799619Y-110077238D02*
X81752000Y-110124857D01*
X81704380Y-110220095D01*
X81704380Y-110458190D01*
X81752000Y-110553428D01*
X81799619Y-110601047D01*
X81894857Y-110648666D01*
X81990095Y-110648666D01*
X82132952Y-110601047D01*
X82704380Y-110029619D01*
X82704380Y-110648666D01*
%TO.C,J3*%
X96091333Y-155662380D02*
X96091333Y-156376666D01*
X96138952Y-156519523D01*
X96234190Y-156614761D01*
X96377047Y-156662380D01*
X96472285Y-156662380D01*
X95710380Y-155662380D02*
X95091333Y-155662380D01*
X95424666Y-156043333D01*
X95281809Y-156043333D01*
X95186571Y-156090952D01*
X95138952Y-156138571D01*
X95091333Y-156233809D01*
X95091333Y-156471904D01*
X95138952Y-156567142D01*
X95186571Y-156614761D01*
X95281809Y-156662380D01*
X95567523Y-156662380D01*
X95662761Y-156614761D01*
X95710380Y-156567142D01*
%TO.C,J4*%
X77549333Y-155662380D02*
X77549333Y-156376666D01*
X77596952Y-156519523D01*
X77692190Y-156614761D01*
X77835047Y-156662380D01*
X77930285Y-156662380D01*
X76644571Y-155995714D02*
X76644571Y-156662380D01*
X76882666Y-155614761D02*
X77120761Y-156329047D01*
X76501714Y-156329047D01*
%TO.C,R2*%
X113212666Y-142820380D02*
X113546000Y-142344190D01*
X113784095Y-142820380D02*
X113784095Y-141820380D01*
X113403142Y-141820380D01*
X113307904Y-141868000D01*
X113260285Y-141915619D01*
X113212666Y-142010857D01*
X113212666Y-142153714D01*
X113260285Y-142248952D01*
X113307904Y-142296571D01*
X113403142Y-142344190D01*
X113784095Y-142344190D01*
X112831714Y-141915619D02*
X112784095Y-141868000D01*
X112688857Y-141820380D01*
X112450761Y-141820380D01*
X112355523Y-141868000D01*
X112307904Y-141915619D01*
X112260285Y-142010857D01*
X112260285Y-142106095D01*
X112307904Y-142248952D01*
X112879333Y-142820380D01*
X112260285Y-142820380D01*
%TO.C,R3*%
X99988666Y-139644380D02*
X100322000Y-139168190D01*
X100560095Y-139644380D02*
X100560095Y-138644380D01*
X100179142Y-138644380D01*
X100083904Y-138692000D01*
X100036285Y-138739619D01*
X99988666Y-138834857D01*
X99988666Y-138977714D01*
X100036285Y-139072952D01*
X100083904Y-139120571D01*
X100179142Y-139168190D01*
X100560095Y-139168190D01*
X99655333Y-138644380D02*
X99036285Y-138644380D01*
X99369619Y-139025333D01*
X99226761Y-139025333D01*
X99131523Y-139072952D01*
X99083904Y-139120571D01*
X99036285Y-139215809D01*
X99036285Y-139453904D01*
X99083904Y-139549142D01*
X99131523Y-139596761D01*
X99226761Y-139644380D01*
X99512476Y-139644380D01*
X99607714Y-139596761D01*
X99655333Y-139549142D01*
%TO.C,R4*%
X85510666Y-138882380D02*
X85844000Y-138406190D01*
X86082095Y-138882380D02*
X86082095Y-137882380D01*
X85701142Y-137882380D01*
X85605904Y-137930000D01*
X85558285Y-137977619D01*
X85510666Y-138072857D01*
X85510666Y-138215714D01*
X85558285Y-138310952D01*
X85605904Y-138358571D01*
X85701142Y-138406190D01*
X86082095Y-138406190D01*
X84653523Y-138215714D02*
X84653523Y-138882380D01*
X84891619Y-137834761D02*
X85129714Y-138549047D01*
X84510666Y-138549047D01*
%TO.C,R5*%
X108878666Y-140660380D02*
X109212000Y-140184190D01*
X109450095Y-140660380D02*
X109450095Y-139660380D01*
X109069142Y-139660380D01*
X108973904Y-139708000D01*
X108926285Y-139755619D01*
X108878666Y-139850857D01*
X108878666Y-139993714D01*
X108926285Y-140088952D01*
X108973904Y-140136571D01*
X109069142Y-140184190D01*
X109450095Y-140184190D01*
X107973904Y-139660380D02*
X108450095Y-139660380D01*
X108497714Y-140136571D01*
X108450095Y-140088952D01*
X108354857Y-140041333D01*
X108116761Y-140041333D01*
X108021523Y-140088952D01*
X107973904Y-140136571D01*
X107926285Y-140231809D01*
X107926285Y-140469904D01*
X107973904Y-140565142D01*
X108021523Y-140612761D01*
X108116761Y-140660380D01*
X108354857Y-140660380D01*
X108450095Y-140612761D01*
X108497714Y-140565142D01*
%TO.C,R6*%
X104830666Y-140660380D02*
X105164000Y-140184190D01*
X105402095Y-140660380D02*
X105402095Y-139660380D01*
X105021142Y-139660380D01*
X104925904Y-139708000D01*
X104878285Y-139755619D01*
X104830666Y-139850857D01*
X104830666Y-139993714D01*
X104878285Y-140088952D01*
X104925904Y-140136571D01*
X105021142Y-140184190D01*
X105402095Y-140184190D01*
X103973523Y-139660380D02*
X104164000Y-139660380D01*
X104259238Y-139708000D01*
X104306857Y-139755619D01*
X104402095Y-139898476D01*
X104449714Y-140088952D01*
X104449714Y-140469904D01*
X104402095Y-140565142D01*
X104354476Y-140612761D01*
X104259238Y-140660380D01*
X104068761Y-140660380D01*
X103973523Y-140612761D01*
X103925904Y-140565142D01*
X103878285Y-140469904D01*
X103878285Y-140231809D01*
X103925904Y-140136571D01*
X103973523Y-140088952D01*
X104068761Y-140041333D01*
X104259238Y-140041333D01*
X104354476Y-140088952D01*
X104402095Y-140136571D01*
X104449714Y-140231809D01*
%TO.C,R7*%
X63936666Y-130374380D02*
X64270000Y-129898190D01*
X64508095Y-130374380D02*
X64508095Y-129374380D01*
X64127142Y-129374380D01*
X64031904Y-129422000D01*
X63984285Y-129469619D01*
X63936666Y-129564857D01*
X63936666Y-129707714D01*
X63984285Y-129802952D01*
X64031904Y-129850571D01*
X64127142Y-129898190D01*
X64508095Y-129898190D01*
X63603333Y-129374380D02*
X62936666Y-129374380D01*
X63365238Y-130374380D01*
%TO.C,R8*%
X71794666Y-136470380D02*
X72128000Y-135994190D01*
X72366095Y-136470380D02*
X72366095Y-135470380D01*
X71985142Y-135470380D01*
X71889904Y-135518000D01*
X71842285Y-135565619D01*
X71794666Y-135660857D01*
X71794666Y-135803714D01*
X71842285Y-135898952D01*
X71889904Y-135946571D01*
X71985142Y-135994190D01*
X72366095Y-135994190D01*
X71223238Y-135898952D02*
X71318476Y-135851333D01*
X71366095Y-135803714D01*
X71413714Y-135708476D01*
X71413714Y-135660857D01*
X71366095Y-135565619D01*
X71318476Y-135518000D01*
X71223238Y-135470380D01*
X71032761Y-135470380D01*
X70937523Y-135518000D01*
X70889904Y-135565619D01*
X70842285Y-135660857D01*
X70842285Y-135708476D01*
X70889904Y-135803714D01*
X70937523Y-135851333D01*
X71032761Y-135898952D01*
X71223238Y-135898952D01*
X71318476Y-135946571D01*
X71366095Y-135994190D01*
X71413714Y-136089428D01*
X71413714Y-136279904D01*
X71366095Y-136375142D01*
X71318476Y-136422761D01*
X71223238Y-136470380D01*
X71032761Y-136470380D01*
X70937523Y-136422761D01*
X70889904Y-136375142D01*
X70842285Y-136279904D01*
X70842285Y-136089428D01*
X70889904Y-135994190D01*
X70937523Y-135946571D01*
X71032761Y-135898952D01*
%TO.C,R9*%
X81208666Y-135454380D02*
X81542000Y-134978190D01*
X81780095Y-135454380D02*
X81780095Y-134454380D01*
X81399142Y-134454380D01*
X81303904Y-134502000D01*
X81256285Y-134549619D01*
X81208666Y-134644857D01*
X81208666Y-134787714D01*
X81256285Y-134882952D01*
X81303904Y-134930571D01*
X81399142Y-134978190D01*
X81780095Y-134978190D01*
X80732476Y-135454380D02*
X80542000Y-135454380D01*
X80446761Y-135406761D01*
X80399142Y-135359142D01*
X80303904Y-135216285D01*
X80256285Y-135025809D01*
X80256285Y-134644857D01*
X80303904Y-134549619D01*
X80351523Y-134502000D01*
X80446761Y-134454380D01*
X80637238Y-134454380D01*
X80732476Y-134502000D01*
X80780095Y-134549619D01*
X80827714Y-134644857D01*
X80827714Y-134882952D01*
X80780095Y-134978190D01*
X80732476Y-135025809D01*
X80637238Y-135073428D01*
X80446761Y-135073428D01*
X80351523Y-135025809D01*
X80303904Y-134978190D01*
X80256285Y-134882952D01*
%TO.C,R10*%
X81668857Y-138882380D02*
X82002190Y-138406190D01*
X82240285Y-138882380D02*
X82240285Y-137882380D01*
X81859333Y-137882380D01*
X81764095Y-137930000D01*
X81716476Y-137977619D01*
X81668857Y-138072857D01*
X81668857Y-138215714D01*
X81716476Y-138310952D01*
X81764095Y-138358571D01*
X81859333Y-138406190D01*
X82240285Y-138406190D01*
X80716476Y-138882380D02*
X81287904Y-138882380D01*
X81002190Y-138882380D02*
X81002190Y-137882380D01*
X81097428Y-138025238D01*
X81192666Y-138120476D01*
X81287904Y-138168095D01*
X80097428Y-137882380D02*
X80002190Y-137882380D01*
X79906952Y-137930000D01*
X79859333Y-137977619D01*
X79811714Y-138072857D01*
X79764095Y-138263333D01*
X79764095Y-138501428D01*
X79811714Y-138691904D01*
X79859333Y-138787142D01*
X79906952Y-138834761D01*
X80002190Y-138882380D01*
X80097428Y-138882380D01*
X80192666Y-138834761D01*
X80240285Y-138787142D01*
X80287904Y-138691904D01*
X80335523Y-138501428D01*
X80335523Y-138263333D01*
X80287904Y-138072857D01*
X80240285Y-137977619D01*
X80192666Y-137930000D01*
X80097428Y-137882380D01*
%TO.C,R11*%
X64364857Y-133548380D02*
X64698190Y-133072190D01*
X64936285Y-133548380D02*
X64936285Y-132548380D01*
X64555333Y-132548380D01*
X64460095Y-132596000D01*
X64412476Y-132643619D01*
X64364857Y-132738857D01*
X64364857Y-132881714D01*
X64412476Y-132976952D01*
X64460095Y-133024571D01*
X64555333Y-133072190D01*
X64936285Y-133072190D01*
X63412476Y-133548380D02*
X63983904Y-133548380D01*
X63698190Y-133548380D02*
X63698190Y-132548380D01*
X63793428Y-132691238D01*
X63888666Y-132786476D01*
X63983904Y-132834095D01*
X62460095Y-133548380D02*
X63031523Y-133548380D01*
X62745809Y-133548380D02*
X62745809Y-132548380D01*
X62841047Y-132691238D01*
X62936285Y-132786476D01*
X63031523Y-132834095D01*
%TO.C,R12*%
X59840857Y-133802380D02*
X60174190Y-133326190D01*
X60412285Y-133802380D02*
X60412285Y-132802380D01*
X60031333Y-132802380D01*
X59936095Y-132850000D01*
X59888476Y-132897619D01*
X59840857Y-132992857D01*
X59840857Y-133135714D01*
X59888476Y-133230952D01*
X59936095Y-133278571D01*
X60031333Y-133326190D01*
X60412285Y-133326190D01*
X58888476Y-133802380D02*
X59459904Y-133802380D01*
X59174190Y-133802380D02*
X59174190Y-132802380D01*
X59269428Y-132945238D01*
X59364666Y-133040476D01*
X59459904Y-133088095D01*
X58507523Y-132897619D02*
X58459904Y-132850000D01*
X58364666Y-132802380D01*
X58126571Y-132802380D01*
X58031333Y-132850000D01*
X57983714Y-132897619D01*
X57936095Y-132992857D01*
X57936095Y-133088095D01*
X57983714Y-133230952D01*
X58555142Y-133802380D01*
X57936095Y-133802380D01*
%TO.C,R13*%
X118498857Y-139644380D02*
X118832190Y-139168190D01*
X119070285Y-139644380D02*
X119070285Y-138644380D01*
X118689333Y-138644380D01*
X118594095Y-138692000D01*
X118546476Y-138739619D01*
X118498857Y-138834857D01*
X118498857Y-138977714D01*
X118546476Y-139072952D01*
X118594095Y-139120571D01*
X118689333Y-139168190D01*
X119070285Y-139168190D01*
X117546476Y-139644380D02*
X118117904Y-139644380D01*
X117832190Y-139644380D02*
X117832190Y-138644380D01*
X117927428Y-138787238D01*
X118022666Y-138882476D01*
X118117904Y-138930095D01*
X117213142Y-138644380D02*
X116594095Y-138644380D01*
X116927428Y-139025333D01*
X116784571Y-139025333D01*
X116689333Y-139072952D01*
X116641714Y-139120571D01*
X116594095Y-139215809D01*
X116594095Y-139453904D01*
X116641714Y-139549142D01*
X116689333Y-139596761D01*
X116784571Y-139644380D01*
X117070285Y-139644380D01*
X117165523Y-139596761D01*
X117213142Y-139549142D01*
%TO.C,R14*%
X95368857Y-133294380D02*
X95702190Y-132818190D01*
X95940285Y-133294380D02*
X95940285Y-132294380D01*
X95559333Y-132294380D01*
X95464095Y-132342000D01*
X95416476Y-132389619D01*
X95368857Y-132484857D01*
X95368857Y-132627714D01*
X95416476Y-132722952D01*
X95464095Y-132770571D01*
X95559333Y-132818190D01*
X95940285Y-132818190D01*
X94416476Y-133294380D02*
X94987904Y-133294380D01*
X94702190Y-133294380D02*
X94702190Y-132294380D01*
X94797428Y-132437238D01*
X94892666Y-132532476D01*
X94987904Y-132580095D01*
X93559333Y-132627714D02*
X93559333Y-133294380D01*
X93797428Y-132246761D02*
X94035523Y-132961047D01*
X93416476Y-132961047D01*
%TO.C,R15*%
X81668857Y-132278380D02*
X82002190Y-131802190D01*
X82240285Y-132278380D02*
X82240285Y-131278380D01*
X81859333Y-131278380D01*
X81764095Y-131326000D01*
X81716476Y-131373619D01*
X81668857Y-131468857D01*
X81668857Y-131611714D01*
X81716476Y-131706952D01*
X81764095Y-131754571D01*
X81859333Y-131802190D01*
X82240285Y-131802190D01*
X80716476Y-132278380D02*
X81287904Y-132278380D01*
X81002190Y-132278380D02*
X81002190Y-131278380D01*
X81097428Y-131421238D01*
X81192666Y-131516476D01*
X81287904Y-131564095D01*
X79811714Y-131278380D02*
X80287904Y-131278380D01*
X80335523Y-131754571D01*
X80287904Y-131706952D01*
X80192666Y-131659333D01*
X79954571Y-131659333D01*
X79859333Y-131706952D01*
X79811714Y-131754571D01*
X79764095Y-131849809D01*
X79764095Y-132087904D01*
X79811714Y-132183142D01*
X79859333Y-132230761D01*
X79954571Y-132278380D01*
X80192666Y-132278380D01*
X80287904Y-132230761D01*
X80335523Y-132183142D01*
%TO.C,R16*%
X127134857Y-129738380D02*
X127468190Y-129262190D01*
X127706285Y-129738380D02*
X127706285Y-128738380D01*
X127325333Y-128738380D01*
X127230095Y-128786000D01*
X127182476Y-128833619D01*
X127134857Y-128928857D01*
X127134857Y-129071714D01*
X127182476Y-129166952D01*
X127230095Y-129214571D01*
X127325333Y-129262190D01*
X127706285Y-129262190D01*
X126182476Y-129738380D02*
X126753904Y-129738380D01*
X126468190Y-129738380D02*
X126468190Y-128738380D01*
X126563428Y-128881238D01*
X126658666Y-128976476D01*
X126753904Y-129024095D01*
X125325333Y-128738380D02*
X125515809Y-128738380D01*
X125611047Y-128786000D01*
X125658666Y-128833619D01*
X125753904Y-128976476D01*
X125801523Y-129166952D01*
X125801523Y-129547904D01*
X125753904Y-129643142D01*
X125706285Y-129690761D01*
X125611047Y-129738380D01*
X125420571Y-129738380D01*
X125325333Y-129690761D01*
X125277714Y-129643142D01*
X125230095Y-129547904D01*
X125230095Y-129309809D01*
X125277714Y-129214571D01*
X125325333Y-129166952D01*
X125420571Y-129119333D01*
X125611047Y-129119333D01*
X125706285Y-129166952D01*
X125753904Y-129214571D01*
X125801523Y-129309809D01*
%TO.C,R17*%
X100448857Y-133040380D02*
X100782190Y-132564190D01*
X101020285Y-133040380D02*
X101020285Y-132040380D01*
X100639333Y-132040380D01*
X100544095Y-132088000D01*
X100496476Y-132135619D01*
X100448857Y-132230857D01*
X100448857Y-132373714D01*
X100496476Y-132468952D01*
X100544095Y-132516571D01*
X100639333Y-132564190D01*
X101020285Y-132564190D01*
X99496476Y-133040380D02*
X100067904Y-133040380D01*
X99782190Y-133040380D02*
X99782190Y-132040380D01*
X99877428Y-132183238D01*
X99972666Y-132278476D01*
X100067904Y-132326095D01*
X99163142Y-132040380D02*
X98496476Y-132040380D01*
X98925047Y-133040380D01*
%TO.C,R19*%
X118498857Y-136342380D02*
X118832190Y-135866190D01*
X119070285Y-136342380D02*
X119070285Y-135342380D01*
X118689333Y-135342380D01*
X118594095Y-135390000D01*
X118546476Y-135437619D01*
X118498857Y-135532857D01*
X118498857Y-135675714D01*
X118546476Y-135770952D01*
X118594095Y-135818571D01*
X118689333Y-135866190D01*
X119070285Y-135866190D01*
X117546476Y-136342380D02*
X118117904Y-136342380D01*
X117832190Y-136342380D02*
X117832190Y-135342380D01*
X117927428Y-135485238D01*
X118022666Y-135580476D01*
X118117904Y-135628095D01*
X117070285Y-136342380D02*
X116879809Y-136342380D01*
X116784571Y-136294761D01*
X116736952Y-136247142D01*
X116641714Y-136104285D01*
X116594095Y-135913809D01*
X116594095Y-135532857D01*
X116641714Y-135437619D01*
X116689333Y-135390000D01*
X116784571Y-135342380D01*
X116975047Y-135342380D01*
X117070285Y-135390000D01*
X117117904Y-135437619D01*
X117165523Y-135532857D01*
X117165523Y-135770952D01*
X117117904Y-135866190D01*
X117070285Y-135913809D01*
X116975047Y-135961428D01*
X116784571Y-135961428D01*
X116689333Y-135913809D01*
X116641714Y-135866190D01*
X116594095Y-135770952D01*
%TO.C,R20*%
X90574857Y-138882380D02*
X90908190Y-138406190D01*
X91146285Y-138882380D02*
X91146285Y-137882380D01*
X90765333Y-137882380D01*
X90670095Y-137930000D01*
X90622476Y-137977619D01*
X90574857Y-138072857D01*
X90574857Y-138215714D01*
X90622476Y-138310952D01*
X90670095Y-138358571D01*
X90765333Y-138406190D01*
X91146285Y-138406190D01*
X90193904Y-137977619D02*
X90146285Y-137930000D01*
X90051047Y-137882380D01*
X89812952Y-137882380D01*
X89717714Y-137930000D01*
X89670095Y-137977619D01*
X89622476Y-138072857D01*
X89622476Y-138168095D01*
X89670095Y-138310952D01*
X90241523Y-138882380D01*
X89622476Y-138882380D01*
X89003428Y-137882380D02*
X88908190Y-137882380D01*
X88812952Y-137930000D01*
X88765333Y-137977619D01*
X88717714Y-138072857D01*
X88670095Y-138263333D01*
X88670095Y-138501428D01*
X88717714Y-138691904D01*
X88765333Y-138787142D01*
X88812952Y-138834761D01*
X88908190Y-138882380D01*
X89003428Y-138882380D01*
X89098666Y-138834761D01*
X89146285Y-138787142D01*
X89193904Y-138691904D01*
X89241523Y-138501428D01*
X89241523Y-138263333D01*
X89193904Y-138072857D01*
X89146285Y-137977619D01*
X89098666Y-137930000D01*
X89003428Y-137882380D01*
%TO.C,R21*%
X68968857Y-127198380D02*
X69302190Y-126722190D01*
X69540285Y-127198380D02*
X69540285Y-126198380D01*
X69159333Y-126198380D01*
X69064095Y-126246000D01*
X69016476Y-126293619D01*
X68968857Y-126388857D01*
X68968857Y-126531714D01*
X69016476Y-126626952D01*
X69064095Y-126674571D01*
X69159333Y-126722190D01*
X69540285Y-126722190D01*
X68587904Y-126293619D02*
X68540285Y-126246000D01*
X68445047Y-126198380D01*
X68206952Y-126198380D01*
X68111714Y-126246000D01*
X68064095Y-126293619D01*
X68016476Y-126388857D01*
X68016476Y-126484095D01*
X68064095Y-126626952D01*
X68635523Y-127198380D01*
X68016476Y-127198380D01*
X67064095Y-127198380D02*
X67635523Y-127198380D01*
X67349809Y-127198380D02*
X67349809Y-126198380D01*
X67445047Y-126341238D01*
X67540285Y-126436476D01*
X67635523Y-126484095D01*
%TO.C,R22*%
X123054857Y-136470380D02*
X123388190Y-135994190D01*
X123626285Y-136470380D02*
X123626285Y-135470380D01*
X123245333Y-135470380D01*
X123150095Y-135518000D01*
X123102476Y-135565619D01*
X123054857Y-135660857D01*
X123054857Y-135803714D01*
X123102476Y-135898952D01*
X123150095Y-135946571D01*
X123245333Y-135994190D01*
X123626285Y-135994190D01*
X122673904Y-135565619D02*
X122626285Y-135518000D01*
X122531047Y-135470380D01*
X122292952Y-135470380D01*
X122197714Y-135518000D01*
X122150095Y-135565619D01*
X122102476Y-135660857D01*
X122102476Y-135756095D01*
X122150095Y-135898952D01*
X122721523Y-136470380D01*
X122102476Y-136470380D01*
X121721523Y-135565619D02*
X121673904Y-135518000D01*
X121578666Y-135470380D01*
X121340571Y-135470380D01*
X121245333Y-135518000D01*
X121197714Y-135565619D01*
X121150095Y-135660857D01*
X121150095Y-135756095D01*
X121197714Y-135898952D01*
X121769142Y-136470380D01*
X121150095Y-136470380D01*
%TO.C,R23*%
X100464857Y-136216380D02*
X100798190Y-135740190D01*
X101036285Y-136216380D02*
X101036285Y-135216380D01*
X100655333Y-135216380D01*
X100560095Y-135264000D01*
X100512476Y-135311619D01*
X100464857Y-135406857D01*
X100464857Y-135549714D01*
X100512476Y-135644952D01*
X100560095Y-135692571D01*
X100655333Y-135740190D01*
X101036285Y-135740190D01*
X100083904Y-135311619D02*
X100036285Y-135264000D01*
X99941047Y-135216380D01*
X99702952Y-135216380D01*
X99607714Y-135264000D01*
X99560095Y-135311619D01*
X99512476Y-135406857D01*
X99512476Y-135502095D01*
X99560095Y-135644952D01*
X100131523Y-136216380D01*
X99512476Y-136216380D01*
X99179142Y-135216380D02*
X98560095Y-135216380D01*
X98893428Y-135597333D01*
X98750571Y-135597333D01*
X98655333Y-135644952D01*
X98607714Y-135692571D01*
X98560095Y-135787809D01*
X98560095Y-136025904D01*
X98607714Y-136121142D01*
X98655333Y-136168761D01*
X98750571Y-136216380D01*
X99036285Y-136216380D01*
X99131523Y-136168761D01*
X99179142Y-136121142D01*
%TO.C,R24*%
X85986857Y-135580380D02*
X86320190Y-135104190D01*
X86558285Y-135580380D02*
X86558285Y-134580380D01*
X86177333Y-134580380D01*
X86082095Y-134628000D01*
X86034476Y-134675619D01*
X85986857Y-134770857D01*
X85986857Y-134913714D01*
X86034476Y-135008952D01*
X86082095Y-135056571D01*
X86177333Y-135104190D01*
X86558285Y-135104190D01*
X85605904Y-134675619D02*
X85558285Y-134628000D01*
X85463047Y-134580380D01*
X85224952Y-134580380D01*
X85129714Y-134628000D01*
X85082095Y-134675619D01*
X85034476Y-134770857D01*
X85034476Y-134866095D01*
X85082095Y-135008952D01*
X85653523Y-135580380D01*
X85034476Y-135580380D01*
X84177333Y-134913714D02*
X84177333Y-135580380D01*
X84415428Y-134532761D02*
X84653523Y-135247047D01*
X84034476Y-135247047D01*
%TO.C,R25*%
X123070857Y-129738380D02*
X123404190Y-129262190D01*
X123642285Y-129738380D02*
X123642285Y-128738380D01*
X123261333Y-128738380D01*
X123166095Y-128786000D01*
X123118476Y-128833619D01*
X123070857Y-128928857D01*
X123070857Y-129071714D01*
X123118476Y-129166952D01*
X123166095Y-129214571D01*
X123261333Y-129262190D01*
X123642285Y-129262190D01*
X122689904Y-128833619D02*
X122642285Y-128786000D01*
X122547047Y-128738380D01*
X122308952Y-128738380D01*
X122213714Y-128786000D01*
X122166095Y-128833619D01*
X122118476Y-128928857D01*
X122118476Y-129024095D01*
X122166095Y-129166952D01*
X122737523Y-129738380D01*
X122118476Y-129738380D01*
X121213714Y-128738380D02*
X121689904Y-128738380D01*
X121737523Y-129214571D01*
X121689904Y-129166952D01*
X121594666Y-129119333D01*
X121356571Y-129119333D01*
X121261333Y-129166952D01*
X121213714Y-129214571D01*
X121166095Y-129309809D01*
X121166095Y-129547904D01*
X121213714Y-129643142D01*
X121261333Y-129690761D01*
X121356571Y-129738380D01*
X121594666Y-129738380D01*
X121689904Y-129690761D01*
X121737523Y-129643142D01*
%TO.C,R26*%
X105036857Y-126944380D02*
X105370190Y-126468190D01*
X105608285Y-126944380D02*
X105608285Y-125944380D01*
X105227333Y-125944380D01*
X105132095Y-125992000D01*
X105084476Y-126039619D01*
X105036857Y-126134857D01*
X105036857Y-126277714D01*
X105084476Y-126372952D01*
X105132095Y-126420571D01*
X105227333Y-126468190D01*
X105608285Y-126468190D01*
X104655904Y-126039619D02*
X104608285Y-125992000D01*
X104513047Y-125944380D01*
X104274952Y-125944380D01*
X104179714Y-125992000D01*
X104132095Y-126039619D01*
X104084476Y-126134857D01*
X104084476Y-126230095D01*
X104132095Y-126372952D01*
X104703523Y-126944380D01*
X104084476Y-126944380D01*
X103227333Y-125944380D02*
X103417809Y-125944380D01*
X103513047Y-125992000D01*
X103560666Y-126039619D01*
X103655904Y-126182476D01*
X103703523Y-126372952D01*
X103703523Y-126753904D01*
X103655904Y-126849142D01*
X103608285Y-126896761D01*
X103513047Y-126944380D01*
X103322571Y-126944380D01*
X103227333Y-126896761D01*
X103179714Y-126849142D01*
X103132095Y-126753904D01*
X103132095Y-126515809D01*
X103179714Y-126420571D01*
X103227333Y-126372952D01*
X103322571Y-126325333D01*
X103513047Y-126325333D01*
X103608285Y-126372952D01*
X103655904Y-126420571D01*
X103703523Y-126515809D01*
%TO.C,R27*%
X81652857Y-125802380D02*
X81986190Y-125326190D01*
X82224285Y-125802380D02*
X82224285Y-124802380D01*
X81843333Y-124802380D01*
X81748095Y-124850000D01*
X81700476Y-124897619D01*
X81652857Y-124992857D01*
X81652857Y-125135714D01*
X81700476Y-125230952D01*
X81748095Y-125278571D01*
X81843333Y-125326190D01*
X82224285Y-125326190D01*
X81271904Y-124897619D02*
X81224285Y-124850000D01*
X81129047Y-124802380D01*
X80890952Y-124802380D01*
X80795714Y-124850000D01*
X80748095Y-124897619D01*
X80700476Y-124992857D01*
X80700476Y-125088095D01*
X80748095Y-125230952D01*
X81319523Y-125802380D01*
X80700476Y-125802380D01*
X80367142Y-124802380D02*
X79700476Y-124802380D01*
X80129047Y-125802380D01*
%TO.C,R29*%
X90574857Y-135454380D02*
X90908190Y-134978190D01*
X91146285Y-135454380D02*
X91146285Y-134454380D01*
X90765333Y-134454380D01*
X90670095Y-134502000D01*
X90622476Y-134549619D01*
X90574857Y-134644857D01*
X90574857Y-134787714D01*
X90622476Y-134882952D01*
X90670095Y-134930571D01*
X90765333Y-134978190D01*
X91146285Y-134978190D01*
X90193904Y-134549619D02*
X90146285Y-134502000D01*
X90051047Y-134454380D01*
X89812952Y-134454380D01*
X89717714Y-134502000D01*
X89670095Y-134549619D01*
X89622476Y-134644857D01*
X89622476Y-134740095D01*
X89670095Y-134882952D01*
X90241523Y-135454380D01*
X89622476Y-135454380D01*
X89146285Y-135454380D02*
X88955809Y-135454380D01*
X88860571Y-135406761D01*
X88812952Y-135359142D01*
X88717714Y-135216285D01*
X88670095Y-135025809D01*
X88670095Y-134644857D01*
X88717714Y-134549619D01*
X88765333Y-134502000D01*
X88860571Y-134454380D01*
X89051047Y-134454380D01*
X89146285Y-134502000D01*
X89193904Y-134549619D01*
X89241523Y-134644857D01*
X89241523Y-134882952D01*
X89193904Y-134978190D01*
X89146285Y-135025809D01*
X89051047Y-135073428D01*
X88860571Y-135073428D01*
X88765333Y-135025809D01*
X88717714Y-134978190D01*
X88670095Y-134882952D01*
%TO.C,R30*%
X68936857Y-130500380D02*
X69270190Y-130024190D01*
X69508285Y-130500380D02*
X69508285Y-129500380D01*
X69127333Y-129500380D01*
X69032095Y-129548000D01*
X68984476Y-129595619D01*
X68936857Y-129690857D01*
X68936857Y-129833714D01*
X68984476Y-129928952D01*
X69032095Y-129976571D01*
X69127333Y-130024190D01*
X69508285Y-130024190D01*
X68603523Y-129500380D02*
X67984476Y-129500380D01*
X68317809Y-129881333D01*
X68174952Y-129881333D01*
X68079714Y-129928952D01*
X68032095Y-129976571D01*
X67984476Y-130071809D01*
X67984476Y-130309904D01*
X68032095Y-130405142D01*
X68079714Y-130452761D01*
X68174952Y-130500380D01*
X68460666Y-130500380D01*
X68555904Y-130452761D01*
X68603523Y-130405142D01*
X67365428Y-129500380D02*
X67270190Y-129500380D01*
X67174952Y-129548000D01*
X67127333Y-129595619D01*
X67079714Y-129690857D01*
X67032095Y-129881333D01*
X67032095Y-130119428D01*
X67079714Y-130309904D01*
X67127333Y-130405142D01*
X67174952Y-130452761D01*
X67270190Y-130500380D01*
X67365428Y-130500380D01*
X67460666Y-130452761D01*
X67508285Y-130405142D01*
X67555904Y-130309904D01*
X67603523Y-130119428D01*
X67603523Y-129881333D01*
X67555904Y-129690857D01*
X67508285Y-129595619D01*
X67460666Y-129548000D01*
X67365428Y-129500380D01*
%TO.C,R31*%
X127150857Y-123388380D02*
X127484190Y-122912190D01*
X127722285Y-123388380D02*
X127722285Y-122388380D01*
X127341333Y-122388380D01*
X127246095Y-122436000D01*
X127198476Y-122483619D01*
X127150857Y-122578857D01*
X127150857Y-122721714D01*
X127198476Y-122816952D01*
X127246095Y-122864571D01*
X127341333Y-122912190D01*
X127722285Y-122912190D01*
X126817523Y-122388380D02*
X126198476Y-122388380D01*
X126531809Y-122769333D01*
X126388952Y-122769333D01*
X126293714Y-122816952D01*
X126246095Y-122864571D01*
X126198476Y-122959809D01*
X126198476Y-123197904D01*
X126246095Y-123293142D01*
X126293714Y-123340761D01*
X126388952Y-123388380D01*
X126674666Y-123388380D01*
X126769904Y-123340761D01*
X126817523Y-123293142D01*
X125246095Y-123388380D02*
X125817523Y-123388380D01*
X125531809Y-123388380D02*
X125531809Y-122388380D01*
X125627047Y-122531238D01*
X125722285Y-122626476D01*
X125817523Y-122674095D01*
%TO.C,R32*%
X109338857Y-130246380D02*
X109672190Y-129770190D01*
X109910285Y-130246380D02*
X109910285Y-129246380D01*
X109529333Y-129246380D01*
X109434095Y-129294000D01*
X109386476Y-129341619D01*
X109338857Y-129436857D01*
X109338857Y-129579714D01*
X109386476Y-129674952D01*
X109434095Y-129722571D01*
X109529333Y-129770190D01*
X109910285Y-129770190D01*
X109005523Y-129246380D02*
X108386476Y-129246380D01*
X108719809Y-129627333D01*
X108576952Y-129627333D01*
X108481714Y-129674952D01*
X108434095Y-129722571D01*
X108386476Y-129817809D01*
X108386476Y-130055904D01*
X108434095Y-130151142D01*
X108481714Y-130198761D01*
X108576952Y-130246380D01*
X108862666Y-130246380D01*
X108957904Y-130198761D01*
X109005523Y-130151142D01*
X108005523Y-129341619D02*
X107957904Y-129294000D01*
X107862666Y-129246380D01*
X107624571Y-129246380D01*
X107529333Y-129294000D01*
X107481714Y-129341619D01*
X107434095Y-129436857D01*
X107434095Y-129532095D01*
X107481714Y-129674952D01*
X108053142Y-130246380D01*
X107434095Y-130246380D01*
%TO.C,R33*%
X81652857Y-122372380D02*
X81986190Y-121896190D01*
X82224285Y-122372380D02*
X82224285Y-121372380D01*
X81843333Y-121372380D01*
X81748095Y-121420000D01*
X81700476Y-121467619D01*
X81652857Y-121562857D01*
X81652857Y-121705714D01*
X81700476Y-121800952D01*
X81748095Y-121848571D01*
X81843333Y-121896190D01*
X82224285Y-121896190D01*
X81319523Y-121372380D02*
X80700476Y-121372380D01*
X81033809Y-121753333D01*
X80890952Y-121753333D01*
X80795714Y-121800952D01*
X80748095Y-121848571D01*
X80700476Y-121943809D01*
X80700476Y-122181904D01*
X80748095Y-122277142D01*
X80795714Y-122324761D01*
X80890952Y-122372380D01*
X81176666Y-122372380D01*
X81271904Y-122324761D01*
X81319523Y-122277142D01*
X80367142Y-121372380D02*
X79748095Y-121372380D01*
X80081428Y-121753333D01*
X79938571Y-121753333D01*
X79843333Y-121800952D01*
X79795714Y-121848571D01*
X79748095Y-121943809D01*
X79748095Y-122181904D01*
X79795714Y-122277142D01*
X79843333Y-122324761D01*
X79938571Y-122372380D01*
X80224285Y-122372380D01*
X80319523Y-122324761D01*
X80367142Y-122277142D01*
%TO.C,R34*%
X113688857Y-129612380D02*
X114022190Y-129136190D01*
X114260285Y-129612380D02*
X114260285Y-128612380D01*
X113879333Y-128612380D01*
X113784095Y-128660000D01*
X113736476Y-128707619D01*
X113688857Y-128802857D01*
X113688857Y-128945714D01*
X113736476Y-129040952D01*
X113784095Y-129088571D01*
X113879333Y-129136190D01*
X114260285Y-129136190D01*
X113355523Y-128612380D02*
X112736476Y-128612380D01*
X113069809Y-128993333D01*
X112926952Y-128993333D01*
X112831714Y-129040952D01*
X112784095Y-129088571D01*
X112736476Y-129183809D01*
X112736476Y-129421904D01*
X112784095Y-129517142D01*
X112831714Y-129564761D01*
X112926952Y-129612380D01*
X113212666Y-129612380D01*
X113307904Y-129564761D01*
X113355523Y-129517142D01*
X111879333Y-128945714D02*
X111879333Y-129612380D01*
X112117428Y-128564761D02*
X112355523Y-129279047D01*
X111736476Y-129279047D01*
%TO.C,R35*%
X90542857Y-132406380D02*
X90876190Y-131930190D01*
X91114285Y-132406380D02*
X91114285Y-131406380D01*
X90733333Y-131406380D01*
X90638095Y-131454000D01*
X90590476Y-131501619D01*
X90542857Y-131596857D01*
X90542857Y-131739714D01*
X90590476Y-131834952D01*
X90638095Y-131882571D01*
X90733333Y-131930190D01*
X91114285Y-131930190D01*
X90209523Y-131406380D02*
X89590476Y-131406380D01*
X89923809Y-131787333D01*
X89780952Y-131787333D01*
X89685714Y-131834952D01*
X89638095Y-131882571D01*
X89590476Y-131977809D01*
X89590476Y-132215904D01*
X89638095Y-132311142D01*
X89685714Y-132358761D01*
X89780952Y-132406380D01*
X90066666Y-132406380D01*
X90161904Y-132358761D01*
X90209523Y-132311142D01*
X88685714Y-131406380D02*
X89161904Y-131406380D01*
X89209523Y-131882571D01*
X89161904Y-131834952D01*
X89066666Y-131787333D01*
X88828571Y-131787333D01*
X88733333Y-131834952D01*
X88685714Y-131882571D01*
X88638095Y-131977809D01*
X88638095Y-132215904D01*
X88685714Y-132311142D01*
X88733333Y-132358761D01*
X88828571Y-132406380D01*
X89066666Y-132406380D01*
X89161904Y-132358761D01*
X89209523Y-132311142D01*
%TO.C,R36*%
X64396857Y-123896380D02*
X64730190Y-123420190D01*
X64968285Y-123896380D02*
X64968285Y-122896380D01*
X64587333Y-122896380D01*
X64492095Y-122944000D01*
X64444476Y-122991619D01*
X64396857Y-123086857D01*
X64396857Y-123229714D01*
X64444476Y-123324952D01*
X64492095Y-123372571D01*
X64587333Y-123420190D01*
X64968285Y-123420190D01*
X64063523Y-122896380D02*
X63444476Y-122896380D01*
X63777809Y-123277333D01*
X63634952Y-123277333D01*
X63539714Y-123324952D01*
X63492095Y-123372571D01*
X63444476Y-123467809D01*
X63444476Y-123705904D01*
X63492095Y-123801142D01*
X63539714Y-123848761D01*
X63634952Y-123896380D01*
X63920666Y-123896380D01*
X64015904Y-123848761D01*
X64063523Y-123801142D01*
X62587333Y-122896380D02*
X62777809Y-122896380D01*
X62873047Y-122944000D01*
X62920666Y-122991619D01*
X63015904Y-123134476D01*
X63063523Y-123324952D01*
X63063523Y-123705904D01*
X63015904Y-123801142D01*
X62968285Y-123848761D01*
X62873047Y-123896380D01*
X62682571Y-123896380D01*
X62587333Y-123848761D01*
X62539714Y-123801142D01*
X62492095Y-123705904D01*
X62492095Y-123467809D01*
X62539714Y-123372571D01*
X62587333Y-123324952D01*
X62682571Y-123277333D01*
X62873047Y-123277333D01*
X62968285Y-123324952D01*
X63015904Y-123372571D01*
X63063523Y-123467809D01*
%TO.C,R37*%
X127134857Y-119832380D02*
X127468190Y-119356190D01*
X127706285Y-119832380D02*
X127706285Y-118832380D01*
X127325333Y-118832380D01*
X127230095Y-118880000D01*
X127182476Y-118927619D01*
X127134857Y-119022857D01*
X127134857Y-119165714D01*
X127182476Y-119260952D01*
X127230095Y-119308571D01*
X127325333Y-119356190D01*
X127706285Y-119356190D01*
X126801523Y-118832380D02*
X126182476Y-118832380D01*
X126515809Y-119213333D01*
X126372952Y-119213333D01*
X126277714Y-119260952D01*
X126230095Y-119308571D01*
X126182476Y-119403809D01*
X126182476Y-119641904D01*
X126230095Y-119737142D01*
X126277714Y-119784761D01*
X126372952Y-119832380D01*
X126658666Y-119832380D01*
X126753904Y-119784761D01*
X126801523Y-119737142D01*
X125849142Y-118832380D02*
X125182476Y-118832380D01*
X125611047Y-119832380D01*
%TO.C,R38*%
X113656857Y-136216380D02*
X113990190Y-135740190D01*
X114228285Y-136216380D02*
X114228285Y-135216380D01*
X113847333Y-135216380D01*
X113752095Y-135264000D01*
X113704476Y-135311619D01*
X113656857Y-135406857D01*
X113656857Y-135549714D01*
X113704476Y-135644952D01*
X113752095Y-135692571D01*
X113847333Y-135740190D01*
X114228285Y-135740190D01*
X113323523Y-135216380D02*
X112704476Y-135216380D01*
X113037809Y-135597333D01*
X112894952Y-135597333D01*
X112799714Y-135644952D01*
X112752095Y-135692571D01*
X112704476Y-135787809D01*
X112704476Y-136025904D01*
X112752095Y-136121142D01*
X112799714Y-136168761D01*
X112894952Y-136216380D01*
X113180666Y-136216380D01*
X113275904Y-136168761D01*
X113323523Y-136121142D01*
X112133047Y-135644952D02*
X112228285Y-135597333D01*
X112275904Y-135549714D01*
X112323523Y-135454476D01*
X112323523Y-135406857D01*
X112275904Y-135311619D01*
X112228285Y-135264000D01*
X112133047Y-135216380D01*
X111942571Y-135216380D01*
X111847333Y-135264000D01*
X111799714Y-135311619D01*
X111752095Y-135406857D01*
X111752095Y-135454476D01*
X111799714Y-135549714D01*
X111847333Y-135597333D01*
X111942571Y-135644952D01*
X112133047Y-135644952D01*
X112228285Y-135692571D01*
X112275904Y-135740190D01*
X112323523Y-135835428D01*
X112323523Y-136025904D01*
X112275904Y-136121142D01*
X112228285Y-136168761D01*
X112133047Y-136216380D01*
X111942571Y-136216380D01*
X111847333Y-136168761D01*
X111799714Y-136121142D01*
X111752095Y-136025904D01*
X111752095Y-135835428D01*
X111799714Y-135740190D01*
X111847333Y-135692571D01*
X111942571Y-135644952D01*
%TO.C,R39*%
X109370857Y-123516380D02*
X109704190Y-123040190D01*
X109942285Y-123516380D02*
X109942285Y-122516380D01*
X109561333Y-122516380D01*
X109466095Y-122564000D01*
X109418476Y-122611619D01*
X109370857Y-122706857D01*
X109370857Y-122849714D01*
X109418476Y-122944952D01*
X109466095Y-122992571D01*
X109561333Y-123040190D01*
X109942285Y-123040190D01*
X109037523Y-122516380D02*
X108418476Y-122516380D01*
X108751809Y-122897333D01*
X108608952Y-122897333D01*
X108513714Y-122944952D01*
X108466095Y-122992571D01*
X108418476Y-123087809D01*
X108418476Y-123325904D01*
X108466095Y-123421142D01*
X108513714Y-123468761D01*
X108608952Y-123516380D01*
X108894666Y-123516380D01*
X108989904Y-123468761D01*
X109037523Y-123421142D01*
X107942285Y-123516380D02*
X107751809Y-123516380D01*
X107656571Y-123468761D01*
X107608952Y-123421142D01*
X107513714Y-123278285D01*
X107466095Y-123087809D01*
X107466095Y-122706857D01*
X107513714Y-122611619D01*
X107561333Y-122564000D01*
X107656571Y-122516380D01*
X107847047Y-122516380D01*
X107942285Y-122564000D01*
X107989904Y-122611619D01*
X108037523Y-122706857D01*
X108037523Y-122944952D01*
X107989904Y-123040190D01*
X107942285Y-123087809D01*
X107847047Y-123135428D01*
X107656571Y-123135428D01*
X107561333Y-123087809D01*
X107513714Y-123040190D01*
X107466095Y-122944952D01*
%TO.C,R40*%
X105020857Y-143836380D02*
X105354190Y-143360190D01*
X105592285Y-143836380D02*
X105592285Y-142836380D01*
X105211333Y-142836380D01*
X105116095Y-142884000D01*
X105068476Y-142931619D01*
X105020857Y-143026857D01*
X105020857Y-143169714D01*
X105068476Y-143264952D01*
X105116095Y-143312571D01*
X105211333Y-143360190D01*
X105592285Y-143360190D01*
X104163714Y-143169714D02*
X104163714Y-143836380D01*
X104401809Y-142788761D02*
X104639904Y-143503047D01*
X104020857Y-143503047D01*
X103449428Y-142836380D02*
X103354190Y-142836380D01*
X103258952Y-142884000D01*
X103211333Y-142931619D01*
X103163714Y-143026857D01*
X103116095Y-143217333D01*
X103116095Y-143455428D01*
X103163714Y-143645904D01*
X103211333Y-143741142D01*
X103258952Y-143788761D01*
X103354190Y-143836380D01*
X103449428Y-143836380D01*
X103544666Y-143788761D01*
X103592285Y-143741142D01*
X103639904Y-143645904D01*
X103687523Y-143455428D01*
X103687523Y-143217333D01*
X103639904Y-143026857D01*
X103592285Y-142931619D01*
X103544666Y-142884000D01*
X103449428Y-142836380D01*
%TO.C,R41*%
X85986857Y-125928380D02*
X86320190Y-125452190D01*
X86558285Y-125928380D02*
X86558285Y-124928380D01*
X86177333Y-124928380D01*
X86082095Y-124976000D01*
X86034476Y-125023619D01*
X85986857Y-125118857D01*
X85986857Y-125261714D01*
X86034476Y-125356952D01*
X86082095Y-125404571D01*
X86177333Y-125452190D01*
X86558285Y-125452190D01*
X85129714Y-125261714D02*
X85129714Y-125928380D01*
X85367809Y-124880761D02*
X85605904Y-125595047D01*
X84986857Y-125595047D01*
X84082095Y-125928380D02*
X84653523Y-125928380D01*
X84367809Y-125928380D02*
X84367809Y-124928380D01*
X84463047Y-125071238D01*
X84558285Y-125166476D01*
X84653523Y-125214095D01*
%TO.C,R42*%
X62048380Y-113419142D02*
X61572190Y-113085809D01*
X62048380Y-112847714D02*
X61048380Y-112847714D01*
X61048380Y-113228666D01*
X61096000Y-113323904D01*
X61143619Y-113371523D01*
X61238857Y-113419142D01*
X61381714Y-113419142D01*
X61476952Y-113371523D01*
X61524571Y-113323904D01*
X61572190Y-113228666D01*
X61572190Y-112847714D01*
X61381714Y-114276285D02*
X62048380Y-114276285D01*
X61000761Y-114038190D02*
X61715047Y-113800095D01*
X61715047Y-114419142D01*
X61143619Y-114752476D02*
X61096000Y-114800095D01*
X61048380Y-114895333D01*
X61048380Y-115133428D01*
X61096000Y-115228666D01*
X61143619Y-115276285D01*
X61238857Y-115323904D01*
X61334095Y-115323904D01*
X61476952Y-115276285D01*
X62048380Y-114704857D01*
X62048380Y-115323904D01*
%TO.C,R43*%
X118498857Y-120086380D02*
X118832190Y-119610190D01*
X119070285Y-120086380D02*
X119070285Y-119086380D01*
X118689333Y-119086380D01*
X118594095Y-119134000D01*
X118546476Y-119181619D01*
X118498857Y-119276857D01*
X118498857Y-119419714D01*
X118546476Y-119514952D01*
X118594095Y-119562571D01*
X118689333Y-119610190D01*
X119070285Y-119610190D01*
X117641714Y-119419714D02*
X117641714Y-120086380D01*
X117879809Y-119038761D02*
X118117904Y-119753047D01*
X117498857Y-119753047D01*
X117213142Y-119086380D02*
X116594095Y-119086380D01*
X116927428Y-119467333D01*
X116784571Y-119467333D01*
X116689333Y-119514952D01*
X116641714Y-119562571D01*
X116594095Y-119657809D01*
X116594095Y-119895904D01*
X116641714Y-119991142D01*
X116689333Y-120038761D01*
X116784571Y-120086380D01*
X117070285Y-120086380D01*
X117165523Y-120038761D01*
X117213142Y-119991142D01*
%TO.C,R44*%
X109608857Y-120086380D02*
X109942190Y-119610190D01*
X110180285Y-120086380D02*
X110180285Y-119086380D01*
X109799333Y-119086380D01*
X109704095Y-119134000D01*
X109656476Y-119181619D01*
X109608857Y-119276857D01*
X109608857Y-119419714D01*
X109656476Y-119514952D01*
X109704095Y-119562571D01*
X109799333Y-119610190D01*
X110180285Y-119610190D01*
X108751714Y-119419714D02*
X108751714Y-120086380D01*
X108989809Y-119038761D02*
X109227904Y-119753047D01*
X108608857Y-119753047D01*
X107799333Y-119419714D02*
X107799333Y-120086380D01*
X108037428Y-119038761D02*
X108275523Y-119753047D01*
X107656476Y-119753047D01*
%TO.C,R45*%
X76588857Y-120594380D02*
X76922190Y-120118190D01*
X77160285Y-120594380D02*
X77160285Y-119594380D01*
X76779333Y-119594380D01*
X76684095Y-119642000D01*
X76636476Y-119689619D01*
X76588857Y-119784857D01*
X76588857Y-119927714D01*
X76636476Y-120022952D01*
X76684095Y-120070571D01*
X76779333Y-120118190D01*
X77160285Y-120118190D01*
X75731714Y-119927714D02*
X75731714Y-120594380D01*
X75969809Y-119546761D02*
X76207904Y-120261047D01*
X75588857Y-120261047D01*
X74731714Y-119594380D02*
X75207904Y-119594380D01*
X75255523Y-120070571D01*
X75207904Y-120022952D01*
X75112666Y-119975333D01*
X74874571Y-119975333D01*
X74779333Y-120022952D01*
X74731714Y-120070571D01*
X74684095Y-120165809D01*
X74684095Y-120403904D01*
X74731714Y-120499142D01*
X74779333Y-120546761D01*
X74874571Y-120594380D01*
X75112666Y-120594380D01*
X75207904Y-120546761D01*
X75255523Y-120499142D01*
%TO.C,R46*%
X113672857Y-122880380D02*
X114006190Y-122404190D01*
X114244285Y-122880380D02*
X114244285Y-121880380D01*
X113863333Y-121880380D01*
X113768095Y-121928000D01*
X113720476Y-121975619D01*
X113672857Y-122070857D01*
X113672857Y-122213714D01*
X113720476Y-122308952D01*
X113768095Y-122356571D01*
X113863333Y-122404190D01*
X114244285Y-122404190D01*
X112815714Y-122213714D02*
X112815714Y-122880380D01*
X113053809Y-121832761D02*
X113291904Y-122547047D01*
X112672857Y-122547047D01*
X111863333Y-121880380D02*
X112053809Y-121880380D01*
X112149047Y-121928000D01*
X112196666Y-121975619D01*
X112291904Y-122118476D01*
X112339523Y-122308952D01*
X112339523Y-122689904D01*
X112291904Y-122785142D01*
X112244285Y-122832761D01*
X112149047Y-122880380D01*
X111958571Y-122880380D01*
X111863333Y-122832761D01*
X111815714Y-122785142D01*
X111768095Y-122689904D01*
X111768095Y-122451809D01*
X111815714Y-122356571D01*
X111863333Y-122308952D01*
X111958571Y-122261333D01*
X112149047Y-122261333D01*
X112244285Y-122308952D01*
X112291904Y-122356571D01*
X112339523Y-122451809D01*
%TO.C,R47*%
X90558857Y-125928380D02*
X90892190Y-125452190D01*
X91130285Y-125928380D02*
X91130285Y-124928380D01*
X90749333Y-124928380D01*
X90654095Y-124976000D01*
X90606476Y-125023619D01*
X90558857Y-125118857D01*
X90558857Y-125261714D01*
X90606476Y-125356952D01*
X90654095Y-125404571D01*
X90749333Y-125452190D01*
X91130285Y-125452190D01*
X89701714Y-125261714D02*
X89701714Y-125928380D01*
X89939809Y-124880761D02*
X90177904Y-125595047D01*
X89558857Y-125595047D01*
X89273142Y-124928380D02*
X88606476Y-124928380D01*
X89035047Y-125928380D01*
%TO.C,R48*%
X64396857Y-117038380D02*
X64730190Y-116562190D01*
X64968285Y-117038380D02*
X64968285Y-116038380D01*
X64587333Y-116038380D01*
X64492095Y-116086000D01*
X64444476Y-116133619D01*
X64396857Y-116228857D01*
X64396857Y-116371714D01*
X64444476Y-116466952D01*
X64492095Y-116514571D01*
X64587333Y-116562190D01*
X64968285Y-116562190D01*
X63539714Y-116371714D02*
X63539714Y-117038380D01*
X63777809Y-115990761D02*
X64015904Y-116705047D01*
X63396857Y-116705047D01*
X62873047Y-116466952D02*
X62968285Y-116419333D01*
X63015904Y-116371714D01*
X63063523Y-116276476D01*
X63063523Y-116228857D01*
X63015904Y-116133619D01*
X62968285Y-116086000D01*
X62873047Y-116038380D01*
X62682571Y-116038380D01*
X62587333Y-116086000D01*
X62539714Y-116133619D01*
X62492095Y-116228857D01*
X62492095Y-116276476D01*
X62539714Y-116371714D01*
X62587333Y-116419333D01*
X62682571Y-116466952D01*
X62873047Y-116466952D01*
X62968285Y-116514571D01*
X63015904Y-116562190D01*
X63063523Y-116657428D01*
X63063523Y-116847904D01*
X63015904Y-116943142D01*
X62968285Y-116990761D01*
X62873047Y-117038380D01*
X62682571Y-117038380D01*
X62587333Y-116990761D01*
X62539714Y-116943142D01*
X62492095Y-116847904D01*
X62492095Y-116657428D01*
X62539714Y-116562190D01*
X62587333Y-116514571D01*
X62682571Y-116466952D01*
%TO.C,R49*%
X55570380Y-113403142D02*
X55094190Y-113069809D01*
X55570380Y-112831714D02*
X54570380Y-112831714D01*
X54570380Y-113212666D01*
X54618000Y-113307904D01*
X54665619Y-113355523D01*
X54760857Y-113403142D01*
X54903714Y-113403142D01*
X54998952Y-113355523D01*
X55046571Y-113307904D01*
X55094190Y-113212666D01*
X55094190Y-112831714D01*
X54903714Y-114260285D02*
X55570380Y-114260285D01*
X54522761Y-114022190D02*
X55237047Y-113784095D01*
X55237047Y-114403142D01*
X55570380Y-114831714D02*
X55570380Y-115022190D01*
X55522761Y-115117428D01*
X55475142Y-115165047D01*
X55332285Y-115260285D01*
X55141809Y-115307904D01*
X54760857Y-115307904D01*
X54665619Y-115260285D01*
X54618000Y-115212666D01*
X54570380Y-115117428D01*
X54570380Y-114926952D01*
X54618000Y-114831714D01*
X54665619Y-114784095D01*
X54760857Y-114736476D01*
X54998952Y-114736476D01*
X55094190Y-114784095D01*
X55141809Y-114831714D01*
X55189428Y-114926952D01*
X55189428Y-115117428D01*
X55141809Y-115212666D01*
X55094190Y-115260285D01*
X54998952Y-115307904D01*
%TO.C,R51*%
X76080857Y-135580380D02*
X76414190Y-135104190D01*
X76652285Y-135580380D02*
X76652285Y-134580380D01*
X76271333Y-134580380D01*
X76176095Y-134628000D01*
X76128476Y-134675619D01*
X76080857Y-134770857D01*
X76080857Y-134913714D01*
X76128476Y-135008952D01*
X76176095Y-135056571D01*
X76271333Y-135104190D01*
X76652285Y-135104190D01*
X75176095Y-134580380D02*
X75652285Y-134580380D01*
X75699904Y-135056571D01*
X75652285Y-135008952D01*
X75557047Y-134961333D01*
X75318952Y-134961333D01*
X75223714Y-135008952D01*
X75176095Y-135056571D01*
X75128476Y-135151809D01*
X75128476Y-135389904D01*
X75176095Y-135485142D01*
X75223714Y-135532761D01*
X75318952Y-135580380D01*
X75557047Y-135580380D01*
X75652285Y-135532761D01*
X75699904Y-135485142D01*
X74176095Y-135580380D02*
X74747523Y-135580380D01*
X74461809Y-135580380D02*
X74461809Y-134580380D01*
X74557047Y-134723238D01*
X74652285Y-134818476D01*
X74747523Y-134866095D01*
%TO.C,R53*%
X113942857Y-139518380D02*
X114276190Y-139042190D01*
X114514285Y-139518380D02*
X114514285Y-138518380D01*
X114133333Y-138518380D01*
X114038095Y-138566000D01*
X113990476Y-138613619D01*
X113942857Y-138708857D01*
X113942857Y-138851714D01*
X113990476Y-138946952D01*
X114038095Y-138994571D01*
X114133333Y-139042190D01*
X114514285Y-139042190D01*
X113038095Y-138518380D02*
X113514285Y-138518380D01*
X113561904Y-138994571D01*
X113514285Y-138946952D01*
X113419047Y-138899333D01*
X113180952Y-138899333D01*
X113085714Y-138946952D01*
X113038095Y-138994571D01*
X112990476Y-139089809D01*
X112990476Y-139327904D01*
X113038095Y-139423142D01*
X113085714Y-139470761D01*
X113180952Y-139518380D01*
X113419047Y-139518380D01*
X113514285Y-139470761D01*
X113561904Y-139423142D01*
X112657142Y-138518380D02*
X112038095Y-138518380D01*
X112371428Y-138899333D01*
X112228571Y-138899333D01*
X112133333Y-138946952D01*
X112085714Y-138994571D01*
X112038095Y-139089809D01*
X112038095Y-139327904D01*
X112085714Y-139423142D01*
X112133333Y-139470761D01*
X112228571Y-139518380D01*
X112514285Y-139518380D01*
X112609523Y-139470761D01*
X112657142Y-139423142D01*
%TO.C,R54*%
X109100857Y-143836380D02*
X109434190Y-143360190D01*
X109672285Y-143836380D02*
X109672285Y-142836380D01*
X109291333Y-142836380D01*
X109196095Y-142884000D01*
X109148476Y-142931619D01*
X109100857Y-143026857D01*
X109100857Y-143169714D01*
X109148476Y-143264952D01*
X109196095Y-143312571D01*
X109291333Y-143360190D01*
X109672285Y-143360190D01*
X108196095Y-142836380D02*
X108672285Y-142836380D01*
X108719904Y-143312571D01*
X108672285Y-143264952D01*
X108577047Y-143217333D01*
X108338952Y-143217333D01*
X108243714Y-143264952D01*
X108196095Y-143312571D01*
X108148476Y-143407809D01*
X108148476Y-143645904D01*
X108196095Y-143741142D01*
X108243714Y-143788761D01*
X108338952Y-143836380D01*
X108577047Y-143836380D01*
X108672285Y-143788761D01*
X108719904Y-143741142D01*
X107291333Y-143169714D02*
X107291333Y-143836380D01*
X107529428Y-142788761D02*
X107767523Y-143503047D01*
X107148476Y-143503047D01*
%TO.C,R56*%
X68906380Y-113387142D02*
X68430190Y-113053809D01*
X68906380Y-112815714D02*
X67906380Y-112815714D01*
X67906380Y-113196666D01*
X67954000Y-113291904D01*
X68001619Y-113339523D01*
X68096857Y-113387142D01*
X68239714Y-113387142D01*
X68334952Y-113339523D01*
X68382571Y-113291904D01*
X68430190Y-113196666D01*
X68430190Y-112815714D01*
X67906380Y-114291904D02*
X67906380Y-113815714D01*
X68382571Y-113768095D01*
X68334952Y-113815714D01*
X68287333Y-113910952D01*
X68287333Y-114149047D01*
X68334952Y-114244285D01*
X68382571Y-114291904D01*
X68477809Y-114339523D01*
X68715904Y-114339523D01*
X68811142Y-114291904D01*
X68858761Y-114244285D01*
X68906380Y-114149047D01*
X68906380Y-113910952D01*
X68858761Y-113815714D01*
X68811142Y-113768095D01*
X67906380Y-115196666D02*
X67906380Y-115006190D01*
X67954000Y-114910952D01*
X68001619Y-114863333D01*
X68144476Y-114768095D01*
X68334952Y-114720476D01*
X68715904Y-114720476D01*
X68811142Y-114768095D01*
X68858761Y-114815714D01*
X68906380Y-114910952D01*
X68906380Y-115101428D01*
X68858761Y-115196666D01*
X68811142Y-115244285D01*
X68715904Y-115291904D01*
X68477809Y-115291904D01*
X68382571Y-115244285D01*
X68334952Y-115196666D01*
X68287333Y-115101428D01*
X68287333Y-114910952D01*
X68334952Y-114815714D01*
X68382571Y-114768095D01*
X68477809Y-114720476D01*
%TO.C,R57*%
X75510380Y-113387142D02*
X75034190Y-113053809D01*
X75510380Y-112815714D02*
X74510380Y-112815714D01*
X74510380Y-113196666D01*
X74558000Y-113291904D01*
X74605619Y-113339523D01*
X74700857Y-113387142D01*
X74843714Y-113387142D01*
X74938952Y-113339523D01*
X74986571Y-113291904D01*
X75034190Y-113196666D01*
X75034190Y-112815714D01*
X74510380Y-114291904D02*
X74510380Y-113815714D01*
X74986571Y-113768095D01*
X74938952Y-113815714D01*
X74891333Y-113910952D01*
X74891333Y-114149047D01*
X74938952Y-114244285D01*
X74986571Y-114291904D01*
X75081809Y-114339523D01*
X75319904Y-114339523D01*
X75415142Y-114291904D01*
X75462761Y-114244285D01*
X75510380Y-114149047D01*
X75510380Y-113910952D01*
X75462761Y-113815714D01*
X75415142Y-113768095D01*
X74510380Y-114672857D02*
X74510380Y-115339523D01*
X75510380Y-114910952D01*
%TO.C,R58*%
X82240380Y-113387142D02*
X81764190Y-113053809D01*
X82240380Y-112815714D02*
X81240380Y-112815714D01*
X81240380Y-113196666D01*
X81288000Y-113291904D01*
X81335619Y-113339523D01*
X81430857Y-113387142D01*
X81573714Y-113387142D01*
X81668952Y-113339523D01*
X81716571Y-113291904D01*
X81764190Y-113196666D01*
X81764190Y-112815714D01*
X81240380Y-114291904D02*
X81240380Y-113815714D01*
X81716571Y-113768095D01*
X81668952Y-113815714D01*
X81621333Y-113910952D01*
X81621333Y-114149047D01*
X81668952Y-114244285D01*
X81716571Y-114291904D01*
X81811809Y-114339523D01*
X82049904Y-114339523D01*
X82145142Y-114291904D01*
X82192761Y-114244285D01*
X82240380Y-114149047D01*
X82240380Y-113910952D01*
X82192761Y-113815714D01*
X82145142Y-113768095D01*
X81668952Y-114910952D02*
X81621333Y-114815714D01*
X81573714Y-114768095D01*
X81478476Y-114720476D01*
X81430857Y-114720476D01*
X81335619Y-114768095D01*
X81288000Y-114815714D01*
X81240380Y-114910952D01*
X81240380Y-115101428D01*
X81288000Y-115196666D01*
X81335619Y-115244285D01*
X81430857Y-115291904D01*
X81478476Y-115291904D01*
X81573714Y-115244285D01*
X81621333Y-115196666D01*
X81668952Y-115101428D01*
X81668952Y-114910952D01*
X81716571Y-114815714D01*
X81764190Y-114768095D01*
X81859428Y-114720476D01*
X82049904Y-114720476D01*
X82145142Y-114768095D01*
X82192761Y-114815714D01*
X82240380Y-114910952D01*
X82240380Y-115101428D01*
X82192761Y-115196666D01*
X82145142Y-115244285D01*
X82049904Y-115291904D01*
X81859428Y-115291904D01*
X81764190Y-115244285D01*
X81716571Y-115196666D01*
X81668952Y-115101428D01*
%TO.C,R59*%
X65604380Y-113641142D02*
X65128190Y-113307809D01*
X65604380Y-113069714D02*
X64604380Y-113069714D01*
X64604380Y-113450666D01*
X64652000Y-113545904D01*
X64699619Y-113593523D01*
X64794857Y-113641142D01*
X64937714Y-113641142D01*
X65032952Y-113593523D01*
X65080571Y-113545904D01*
X65128190Y-113450666D01*
X65128190Y-113069714D01*
X64604380Y-114545904D02*
X64604380Y-114069714D01*
X65080571Y-114022095D01*
X65032952Y-114069714D01*
X64985333Y-114164952D01*
X64985333Y-114403047D01*
X65032952Y-114498285D01*
X65080571Y-114545904D01*
X65175809Y-114593523D01*
X65413904Y-114593523D01*
X65509142Y-114545904D01*
X65556761Y-114498285D01*
X65604380Y-114403047D01*
X65604380Y-114164952D01*
X65556761Y-114069714D01*
X65509142Y-114022095D01*
X65604380Y-115069714D02*
X65604380Y-115260190D01*
X65556761Y-115355428D01*
X65509142Y-115403047D01*
X65366285Y-115498285D01*
X65175809Y-115545904D01*
X64794857Y-115545904D01*
X64699619Y-115498285D01*
X64652000Y-115450666D01*
X64604380Y-115355428D01*
X64604380Y-115164952D01*
X64652000Y-115069714D01*
X64699619Y-115022095D01*
X64794857Y-114974476D01*
X65032952Y-114974476D01*
X65128190Y-115022095D01*
X65175809Y-115069714D01*
X65223428Y-115164952D01*
X65223428Y-115355428D01*
X65175809Y-115450666D01*
X65128190Y-115498285D01*
X65032952Y-115545904D01*
%TO.C,R60*%
X72208380Y-113387142D02*
X71732190Y-113053809D01*
X72208380Y-112815714D02*
X71208380Y-112815714D01*
X71208380Y-113196666D01*
X71256000Y-113291904D01*
X71303619Y-113339523D01*
X71398857Y-113387142D01*
X71541714Y-113387142D01*
X71636952Y-113339523D01*
X71684571Y-113291904D01*
X71732190Y-113196666D01*
X71732190Y-112815714D01*
X71208380Y-114244285D02*
X71208380Y-114053809D01*
X71256000Y-113958571D01*
X71303619Y-113910952D01*
X71446476Y-113815714D01*
X71636952Y-113768095D01*
X72017904Y-113768095D01*
X72113142Y-113815714D01*
X72160761Y-113863333D01*
X72208380Y-113958571D01*
X72208380Y-114149047D01*
X72160761Y-114244285D01*
X72113142Y-114291904D01*
X72017904Y-114339523D01*
X71779809Y-114339523D01*
X71684571Y-114291904D01*
X71636952Y-114244285D01*
X71589333Y-114149047D01*
X71589333Y-113958571D01*
X71636952Y-113863333D01*
X71684571Y-113815714D01*
X71779809Y-113768095D01*
X71208380Y-114958571D02*
X71208380Y-115053809D01*
X71256000Y-115149047D01*
X71303619Y-115196666D01*
X71398857Y-115244285D01*
X71589333Y-115291904D01*
X71827428Y-115291904D01*
X72017904Y-115244285D01*
X72113142Y-115196666D01*
X72160761Y-115149047D01*
X72208380Y-115053809D01*
X72208380Y-114958571D01*
X72160761Y-114863333D01*
X72113142Y-114815714D01*
X72017904Y-114768095D01*
X71827428Y-114720476D01*
X71589333Y-114720476D01*
X71398857Y-114768095D01*
X71303619Y-114815714D01*
X71256000Y-114863333D01*
X71208380Y-114958571D01*
%TO.C,R61*%
X78812380Y-113387142D02*
X78336190Y-113053809D01*
X78812380Y-112815714D02*
X77812380Y-112815714D01*
X77812380Y-113196666D01*
X77860000Y-113291904D01*
X77907619Y-113339523D01*
X78002857Y-113387142D01*
X78145714Y-113387142D01*
X78240952Y-113339523D01*
X78288571Y-113291904D01*
X78336190Y-113196666D01*
X78336190Y-112815714D01*
X77812380Y-114244285D02*
X77812380Y-114053809D01*
X77860000Y-113958571D01*
X77907619Y-113910952D01*
X78050476Y-113815714D01*
X78240952Y-113768095D01*
X78621904Y-113768095D01*
X78717142Y-113815714D01*
X78764761Y-113863333D01*
X78812380Y-113958571D01*
X78812380Y-114149047D01*
X78764761Y-114244285D01*
X78717142Y-114291904D01*
X78621904Y-114339523D01*
X78383809Y-114339523D01*
X78288571Y-114291904D01*
X78240952Y-114244285D01*
X78193333Y-114149047D01*
X78193333Y-113958571D01*
X78240952Y-113863333D01*
X78288571Y-113815714D01*
X78383809Y-113768095D01*
X78812380Y-115291904D02*
X78812380Y-114720476D01*
X78812380Y-115006190D02*
X77812380Y-115006190D01*
X77955238Y-114910952D01*
X78050476Y-114815714D01*
X78098095Y-114720476D01*
%TO.C,U5*%
X106998904Y-135977380D02*
X106998904Y-136786904D01*
X106951285Y-136882142D01*
X106903666Y-136929761D01*
X106808428Y-136977380D01*
X106617952Y-136977380D01*
X106522714Y-136929761D01*
X106475095Y-136882142D01*
X106427476Y-136786904D01*
X106427476Y-135977380D01*
X105475095Y-135977380D02*
X105951285Y-135977380D01*
X105998904Y-136453571D01*
X105951285Y-136405952D01*
X105856047Y-136358333D01*
X105617952Y-136358333D01*
X105522714Y-136405952D01*
X105475095Y-136453571D01*
X105427476Y-136548809D01*
X105427476Y-136786904D01*
X105475095Y-136882142D01*
X105522714Y-136929761D01*
X105617952Y-136977380D01*
X105856047Y-136977380D01*
X105951285Y-136929761D01*
X105998904Y-136882142D01*
%TO.C,U6*%
X75437904Y-129754380D02*
X75437904Y-130563904D01*
X75390285Y-130659142D01*
X75342666Y-130706761D01*
X75247428Y-130754380D01*
X75056952Y-130754380D01*
X74961714Y-130706761D01*
X74914095Y-130659142D01*
X74866476Y-130563904D01*
X74866476Y-129754380D01*
X73961714Y-129754380D02*
X74152190Y-129754380D01*
X74247428Y-129802000D01*
X74295047Y-129849619D01*
X74390285Y-129992476D01*
X74437904Y-130182952D01*
X74437904Y-130563904D01*
X74390285Y-130659142D01*
X74342666Y-130706761D01*
X74247428Y-130754380D01*
X74056952Y-130754380D01*
X73961714Y-130706761D01*
X73914095Y-130659142D01*
X73866476Y-130563904D01*
X73866476Y-130325809D01*
X73914095Y-130230571D01*
X73961714Y-130182952D01*
X74056952Y-130135333D01*
X74247428Y-130135333D01*
X74342666Y-130182952D01*
X74390285Y-130230571D01*
X74437904Y-130325809D01*
%TO.C,D2*%
X78684380Y-117625904D02*
X77684380Y-117625904D01*
X77684380Y-117864000D01*
X77732000Y-118006857D01*
X77827238Y-118102095D01*
X77922476Y-118149714D01*
X78112952Y-118197333D01*
X78255809Y-118197333D01*
X78446285Y-118149714D01*
X78541523Y-118102095D01*
X78636761Y-118006857D01*
X78684380Y-117864000D01*
X78684380Y-117625904D01*
X77779619Y-118578285D02*
X77732000Y-118625904D01*
X77684380Y-118721142D01*
X77684380Y-118959238D01*
X77732000Y-119054476D01*
X77779619Y-119102095D01*
X77874857Y-119149714D01*
X77970095Y-119149714D01*
X78112952Y-119102095D01*
X78684380Y-118530666D01*
X78684380Y-119149714D01*
%TO.C,D3*%
X72080380Y-117625904D02*
X71080380Y-117625904D01*
X71080380Y-117864000D01*
X71128000Y-118006857D01*
X71223238Y-118102095D01*
X71318476Y-118149714D01*
X71508952Y-118197333D01*
X71651809Y-118197333D01*
X71842285Y-118149714D01*
X71937523Y-118102095D01*
X72032761Y-118006857D01*
X72080380Y-117864000D01*
X72080380Y-117625904D01*
X71080380Y-118530666D02*
X71080380Y-119149714D01*
X71461333Y-118816380D01*
X71461333Y-118959238D01*
X71508952Y-119054476D01*
X71556571Y-119102095D01*
X71651809Y-119149714D01*
X71889904Y-119149714D01*
X71985142Y-119102095D01*
X72032761Y-119054476D01*
X72080380Y-118959238D01*
X72080380Y-118673523D01*
X72032761Y-118578285D01*
X71985142Y-118530666D01*
%TO.C,D4*%
X81986380Y-117625904D02*
X80986380Y-117625904D01*
X80986380Y-117864000D01*
X81034000Y-118006857D01*
X81129238Y-118102095D01*
X81224476Y-118149714D01*
X81414952Y-118197333D01*
X81557809Y-118197333D01*
X81748285Y-118149714D01*
X81843523Y-118102095D01*
X81938761Y-118006857D01*
X81986380Y-117864000D01*
X81986380Y-117625904D01*
X81319714Y-119054476D02*
X81986380Y-119054476D01*
X80938761Y-118816380D02*
X81653047Y-118578285D01*
X81653047Y-119197333D01*
%TO.C,D5*%
X75382380Y-117625904D02*
X74382380Y-117625904D01*
X74382380Y-117864000D01*
X74430000Y-118006857D01*
X74525238Y-118102095D01*
X74620476Y-118149714D01*
X74810952Y-118197333D01*
X74953809Y-118197333D01*
X75144285Y-118149714D01*
X75239523Y-118102095D01*
X75334761Y-118006857D01*
X75382380Y-117864000D01*
X75382380Y-117625904D01*
X74382380Y-119102095D02*
X74382380Y-118625904D01*
X74858571Y-118578285D01*
X74810952Y-118625904D01*
X74763333Y-118721142D01*
X74763333Y-118959238D01*
X74810952Y-119054476D01*
X74858571Y-119102095D01*
X74953809Y-119149714D01*
X75191904Y-119149714D01*
X75287142Y-119102095D01*
X75334761Y-119054476D01*
X75382380Y-118959238D01*
X75382380Y-118721142D01*
X75334761Y-118625904D01*
X75287142Y-118578285D01*
%TO.C,D6*%
X68778380Y-117625904D02*
X67778380Y-117625904D01*
X67778380Y-117864000D01*
X67826000Y-118006857D01*
X67921238Y-118102095D01*
X68016476Y-118149714D01*
X68206952Y-118197333D01*
X68349809Y-118197333D01*
X68540285Y-118149714D01*
X68635523Y-118102095D01*
X68730761Y-118006857D01*
X68778380Y-117864000D01*
X68778380Y-117625904D01*
X67778380Y-119054476D02*
X67778380Y-118864000D01*
X67826000Y-118768761D01*
X67873619Y-118721142D01*
X68016476Y-118625904D01*
X68206952Y-118578285D01*
X68587904Y-118578285D01*
X68683142Y-118625904D01*
X68730761Y-118673523D01*
X68778380Y-118768761D01*
X68778380Y-118959238D01*
X68730761Y-119054476D01*
X68683142Y-119102095D01*
X68587904Y-119149714D01*
X68349809Y-119149714D01*
X68254571Y-119102095D01*
X68206952Y-119054476D01*
X68159333Y-118959238D01*
X68159333Y-118768761D01*
X68206952Y-118673523D01*
X68254571Y-118625904D01*
X68349809Y-118578285D01*
%TO.C,D1*%
X85288380Y-117371904D02*
X84288380Y-117371904D01*
X84288380Y-117610000D01*
X84336000Y-117752857D01*
X84431238Y-117848095D01*
X84526476Y-117895714D01*
X84716952Y-117943333D01*
X84859809Y-117943333D01*
X85050285Y-117895714D01*
X85145523Y-117848095D01*
X85240761Y-117752857D01*
X85288380Y-117610000D01*
X85288380Y-117371904D01*
X85288380Y-118895714D02*
X85288380Y-118324285D01*
X85288380Y-118610000D02*
X84288380Y-118610000D01*
X84431238Y-118514761D01*
X84526476Y-118419523D01*
X84574095Y-118324285D01*
%TO.C,C43*%
X62704857Y-147279142D02*
X62752476Y-147326761D01*
X62895333Y-147374380D01*
X62990571Y-147374380D01*
X63133428Y-147326761D01*
X63228666Y-147231523D01*
X63276285Y-147136285D01*
X63323904Y-146945809D01*
X63323904Y-146802952D01*
X63276285Y-146612476D01*
X63228666Y-146517238D01*
X63133428Y-146422000D01*
X62990571Y-146374380D01*
X62895333Y-146374380D01*
X62752476Y-146422000D01*
X62704857Y-146469619D01*
X61847714Y-146707714D02*
X61847714Y-147374380D01*
X62085809Y-146326761D02*
X62323904Y-147041047D01*
X61704857Y-147041047D01*
X61419142Y-146374380D02*
X60800095Y-146374380D01*
X61133428Y-146755333D01*
X60990571Y-146755333D01*
X60895333Y-146802952D01*
X60847714Y-146850571D01*
X60800095Y-146945809D01*
X60800095Y-147183904D01*
X60847714Y-147279142D01*
X60895333Y-147326761D01*
X60990571Y-147374380D01*
X61276285Y-147374380D01*
X61371523Y-147326761D01*
X61419142Y-147279142D01*
%TD*%
M02*
