M48
; DRILL file {KiCad (5.1.7)-1} date 12/20/20 22:11:27
; FORMAT={-:-/ absolute / inch / decimal}
; #@! TF.CreationDate,2020-12-20T22:11:27+02:00
; #@! TF.GenerationSoftware,Kicad,Pcbnew,(5.1.7)-1
; #@! TF.FileFunction,Plated,1,2,PTH
FMAT,2
INCH
T1C0.0157
T2C0.0197
T3C0.0315
T4C0.0394
%
G90
G05
T1
X2.23Y-4.4513
X2.24Y-5.1
X2.2913Y-5.31
X2.47Y-5.59
X2.55Y-5.18
X2.557Y-4.8608
X2.5759Y-5.9282
X2.63Y-4.46
X2.63Y-4.5387
X2.63Y-4.6851
X2.7287Y-5.18
X2.73Y-5.28
X2.73Y-5.28
X2.734Y-5.484
X2.75Y-4.83
X2.75Y-5.88
X2.76Y-4.45
X2.76Y-4.5287
X2.8Y-4.6851
X2.84Y-5.0518
X2.89Y-4.45
X2.89Y-4.5287
X2.92Y-4.92
X3.01Y-5.29
X3.02Y-4.45
X3.02Y-4.5287
X3.14Y-5.5865
X3.14Y-5.8065
X3.15Y-4.45
X3.2Y-4.51
X3.2285Y-4.46
X3.2294Y-5.25
X3.28Y-4.43
X3.29Y-5.32
X3.3213Y-5.51
X3.4Y-5.25
X3.5817Y-4.8565
X3.6411Y-4.9511
X3.6789Y-4.8324
X3.68Y-4.6
X3.69Y-5.28
X3.69Y-5.54
X3.6951Y-4.7965
X3.77Y-5.55
X3.89Y-4.6
X3.89Y-5.28
X3.97Y-5.55
X3.99Y-4.95
X4.07Y-5.58
X4.07Y-5.84
X4.08Y-5.24
X4.28Y-5.45
X4.31Y-5.71
X4.3117Y-5.84
X4.41Y-6.05
X4.41Y-6.23
X4.4369Y-4.6664
X4.45Y-5.93
X4.49Y-5.54
X4.49Y-5.67
X4.4917Y-6.05
X4.5Y-5.08
X4.5008Y-4.77
X4.52Y-4.95
X4.68Y-5.54
X4.68Y-5.54
X4.74Y-5.74
X4.8752Y-4.9985
X4.94Y-5.7326
T3
X3.04Y-5.74
X3.04Y-6.04
X3.14Y-5.74
X3.14Y-6.04
X3.24Y-5.74
X3.24Y-6.04
X3.34Y-5.74
X3.34Y-6.04
X3.44Y-5.74
X3.44Y-6.04
X3.54Y-5.74
X3.54Y-6.04
X3.64Y-5.74
X3.64Y-6.04
X3.74Y-5.74
X3.74Y-6.04
X3.84Y-5.74
X3.84Y-6.04
X3.94Y-5.74
X3.94Y-6.04
X2.09Y-5.8513
X2.09Y-5.93
X2.09Y-6.0087
X2.09Y-5.4113
X2.09Y-5.49
X2.09Y-5.5687
T4
X3.33Y-4.33
X3.43Y-4.33
X3.53Y-4.33
X3.63Y-4.33
X3.73Y-4.33
X3.83Y-4.33
X3.93Y-4.33
X4.03Y-4.33
X2.15Y-4.31
X2.25Y-4.31
X4.11Y-5.96
X4.11Y-6.06
X2.15Y-6.26
X2.25Y-6.26
X3.49Y-6.23
X3.59Y-6.23
X3.69Y-6.23
X3.79Y-6.23
X3.89Y-6.23
X3.99Y-6.23
X4.09Y-6.23
X2.63Y-4.33
X2.73Y-4.33
X2.83Y-4.33
X2.93Y-4.33
X3.03Y-4.33
X3.13Y-4.33
X4.28Y-5.96
X4.28Y-6.06
X2.83Y-6.23
X2.93Y-6.23
X3.03Y-6.23
X3.13Y-6.23
X3.23Y-6.23
X3.33Y-6.23
T2
G00X2.0853Y-5.1495
M15
G01X2.0577Y-5.1495
M16
G05
G00X2.2038Y-4.9846
M15
G01X2.1762Y-4.9846
M16
G05
G00X2.3605Y-5.1495
M15
G01X2.3329Y-5.1495
M16
G05
G00X2.0831Y-4.815
M15
G01X2.0555Y-4.815
M16
G05
G00X2.2016Y-4.65
M15
G01X2.174Y-4.65
M16
G05
G00X2.3583Y-4.815
M15
G01X2.3307Y-4.815
M16
G05
T0
M30
